<?xml version="1.0" encoding="UTF-8" standalone="no"?><svg xmlns="http://www.w3.org/2000/svg" xmlns:xlink="http://www.w3.org/1999/xlink" clip-rule="evenodd" stroke-miterlimit="4.00" viewBox="0 0 1024 768"><desc>SVG generated by Keynote</desc><defs></defs><g transform="matrix(1.00, 0.00, -0.00, -1.00, 0.0, 768.0)"><path d="M 0.0 768.0 L 1024.0 768.0 L 1024.0 0.0 L 0.0 0.0 Z M 0.0 768.0 " fill="#000000"></path><text xml:space="preserve" font-family="Helvetica-Light" font-size="59.2" fill="#FEFFFF" transform="matrix(1.00, 0.00, -0.00, -1.00, 112.0, 392.0)">S</text><text xml:space="preserve" font-family="Helvetica-Light" font-size="59.2" fill="#FEFFFF" transform="matrix(1.00, 0.00, -0.00, -1.00, 148.2, 392.0)">p</text><text xml:space="preserve" font-family="Helvetica-Light" font-size="59.2" fill="#FEFFFF" transform="matrix(1.00, 0.00, -0.00, -1.00, 184.3, 392.0)">a</text><text xml:space="preserve" font-family="Helvetica-Light" font-size="59.2" fill="#FEFFFF" transform="matrix(1.00, 0.00, -0.00, -1.00, 217.3, 392.0)">r</text><text xml:space="preserve" font-family="Helvetica-Light" font-size="59.2" fill="#FEFFFF" transform="matrix(1.00, 0.00, -0.00, -1.00, 237.0, 392.0)">k</text><text xml:space="preserve" font-family="Helvetica-Light" font-size="59.2" fill="#FEFFFF" transform="matrix(1.00, 0.00, -0.00, -1.00, 266.6, 392.0)"> </text><text xml:space="preserve" font-family="Helvetica-Light" font-size="59.2" fill="#FEFFFF" transform="matrix(1.00, 0.00, -0.00, -1.00, 283.0, 392.0)">S</text><text xml:space="preserve" font-family="Helvetica-Light" font-size="59.2" fill="#FEFFFF" transform="matrix(1.00, 0.00, -0.00, -1.00, 319.2, 392.0)">t</text><text xml:space="preserve" font-family="Helvetica-Light" font-size="59.2" fill="#FEFFFF" transform="matrix(1.00, 0.00, -0.00, -1.00, 335.7, 392.0)">a</text><text xml:space="preserve" font-family="Helvetica-Light" font-size="59.2" fill="#FEFFFF" transform="matrix(1.00, 0.00, -0.00, -1.00, 368.6, 392.0)">n</text><text xml:space="preserve" font-family="Helvetica-Light" font-size="59.2" fill="#FEFFFF" transform="matrix(1.00, 0.00, -0.00, -1.00, 401.5, 392.0)">d</text><text xml:space="preserve" font-family="Helvetica-Light" font-size="59.2" fill="#FEFFFF" transform="matrix(1.00, 0.00, -0.00, -1.00, 437.7, 392.0)">a</text><text xml:space="preserve" font-family="Helvetica-Light" font-size="59.2" fill="#FEFFFF" transform="matrix(1.00, 0.00, -0.00, -1.00, 470.6, 392.0)">l</text><text xml:space="preserve" font-family="Helvetica-Light" font-size="59.2" fill="#FEFFFF" transform="matrix(1.00, 0.00, -0.00, -1.00, 483.7, 392.0)">o</text><text xml:space="preserve" font-family="Helvetica-Light" font-size="59.2" fill="#FEFFFF" transform="matrix(1.00, 0.00, -0.00, -1.00, 516.6, 392.0)">n</text><text xml:space="preserve" font-family="Helvetica-Light" font-size="59.2" fill="#FEFFFF" transform="matrix(1.00, 0.00, -0.00, -1.00, 549.5, 392.0)">e</text><text xml:space="preserve" font-family="Helvetica-Light" font-size="59.2" fill="#FEFFFF" transform="matrix(1.00, 0.00, -0.00, -1.00, 582.5, 392.0)"> </text><text xml:space="preserve" font-family="Helvetica-Light" font-size="59.2" fill="#FEFFFF" transform="matrix(1.00, 0.00, -0.00, -1.00, 598.9, 392.0)">A</text><text xml:space="preserve" font-family="Helvetica-Light" font-size="59.2" fill="#FEFFFF" transform="matrix(1.00, 0.00, -0.00, -1.00, 638.4, 392.0)">p</text><text xml:space="preserve" font-family="Helvetica-Light" font-size="59.2" fill="#FEFFFF" transform="matrix(1.00, 0.00, -0.00, -1.00, 674.6, 392.0)">p</text><text xml:space="preserve" font-family="Helvetica-Light" font-size="59.2" fill="#FEFFFF" transform="matrix(1.00, 0.00, -0.00, -1.00, 710.7, 392.0)">l</text><text xml:space="preserve" font-family="Helvetica-Light" font-size="59.2" fill="#FEFFFF" transform="matrix(1.00, 0.00, -0.00, -1.00, 723.9, 392.0)">i</text><text xml:space="preserve" font-family="Helvetica-Light" font-size="59.2" fill="#FEFFFF" transform="matrix(1.00, 0.00, -0.00, -1.00, 737.0, 392.0)">c</text><text xml:space="preserve" font-family="Helvetica-Light" font-size="59.2" fill="#FEFFFF" transform="matrix(1.00, 0.00, -0.00, -1.00, 769.9, 392.0)">a</text><text xml:space="preserve" font-family="Helvetica-Light" font-size="59.2" fill="#FEFFFF" transform="matrix(1.00, 0.00, -0.00, -1.00, 802.9, 392.0)">t</text><text xml:space="preserve" font-family="Helvetica-Light" font-size="59.2" fill="#FEFFFF" transform="matrix(1.00, 0.00, -0.00, -1.00, 819.3, 392.0)">i</text><text xml:space="preserve" font-family="Helvetica-Light" font-size="59.2" fill="#FEFFFF" transform="matrix(1.00, 0.00, -0.00, -1.00, 832.5, 392.0)">o</text><text xml:space="preserve" font-family="Helvetica-Light" font-size="59.2" fill="#FEFFFF" transform="matrix(1.00, 0.00, -0.00, -1.00, 865.4, 392.0)">n</text><text xml:space="preserve" font-family="Helvetica-Light" font-size="59.2" fill="#FEFFFF" transform="matrix(1.00, 0.00, -0.00, -1.00, 898.3, 392.0)">s</text></g></svg>