<?xml version="1.0" encoding="UTF-8" standalone="no"?><svg xmlns="http://www.w3.org/2000/svg" xmlns:xlink="http://www.w3.org/1999/xlink" clip-rule="evenodd" stroke-miterlimit="4.00" viewBox="0 0 1024 768"><desc>SVG generated by Keynote</desc><defs></defs><g transform="matrix(1.00, 0.00, -0.00, -1.00, 0.0, 768.0)"><path d="M 0.0 768.0 L 1024.0 768.0 L 1024.0 0.0 L 0.0 0.0 Z M 0.0 768.0 " fill="#000000"></path><image xlink:href="7A83593E5D8C4789CCECD114EA2C8425.png" width="890.00" height="359.00" transform="matrix(1.00, 0.00, -0.00, -1.00, 52.0, 639.0)"></image><text xml:space="preserve" font-family="Helvetica-Light" font-size="15.0" fill="#FEFFFF" transform="matrix(1.00, 0.00, -0.00, -1.00, 83.0, 245.0)">D</text><text xml:space="preserve" font-family="Helvetica-Light" font-size="15.0" fill="#FEFFFF" transform="matrix(1.00, 0.00, -0.00, -1.00, 93.8, 245.0)">r</text><text xml:space="preserve" font-family="Helvetica-Light" font-size="15.0" fill="#FEFFFF" transform="matrix(1.00, 0.00, -0.00, -1.00, 98.8, 245.0)">i</text><text xml:space="preserve" font-family="Helvetica-Light" font-size="15.0" fill="#FEFFFF" transform="matrix(1.00, 0.00, -0.00, -1.00, 102.2, 245.0)">v</text><text xml:space="preserve" font-family="Helvetica-Light" font-size="15.0" fill="#FEFFFF" transform="matrix(1.00, 0.00, -0.00, -1.00, 109.7, 245.0)">e</text><text xml:space="preserve" font-family="Helvetica-Light" font-size="15.0" fill="#FEFFFF" transform="matrix(1.00, 0.00, -0.00, -1.00, 118.0, 245.0)">r</text><text xml:space="preserve" font-family="Helvetica-Light" font-size="15.0" fill="#FEFFFF" transform="matrix(1.00, 0.00, -0.00, -1.00, 123.0, 245.0)"> </text><text xml:space="preserve" font-family="Helvetica-Light" font-size="15.0" fill="#FEFFFF" transform="matrix(1.00, 0.00, -0.00, -1.00, 127.2, 245.0)">p</text><text xml:space="preserve" font-family="Helvetica-Light" font-size="15.0" fill="#FEFFFF" transform="matrix(1.00, 0.00, -0.00, -1.00, 136.3, 245.0)">r</text><text xml:space="preserve" font-family="Helvetica-Light" font-size="15.0" fill="#FEFFFF" transform="matrix(1.00, 0.00, -0.00, -1.00, 141.1, 245.0)">o</text><text xml:space="preserve" font-family="Helvetica-Light" font-size="15.0" fill="#FEFFFF" transform="matrix(1.00, 0.00, -0.00, -1.00, 149.4, 245.0)">g</text><text xml:space="preserve" font-family="Helvetica-Light" font-size="15.0" fill="#FEFFFF" transform="matrix(1.00, 0.00, -0.00, -1.00, 158.6, 245.0)">r</text><text xml:space="preserve" font-family="Helvetica-Light" font-size="15.0" fill="#FEFFFF" transform="matrix(1.00, 0.00, -0.00, -1.00, 163.6, 245.0)">a</text><text xml:space="preserve" font-family="Helvetica-Light" font-size="15.0" fill="#FEFFFF" transform="matrix(1.00, 0.00, -0.00, -1.00, 171.9, 245.0)">m</text><text xml:space="preserve" font-family="Helvetica-Light" font-size="15.0" fill="#FEFFFF" transform="matrix(1.00, 0.00, -0.00, -1.00, 184.4, 245.0)">s</text><text xml:space="preserve" font-family="Helvetica-Light" font-size="15.0" fill="#FEFFFF" transform="matrix(1.00, 0.00, -0.00, -1.00, 191.9, 245.0)"> </text><text xml:space="preserve" font-family="Helvetica-Light" font-size="15.0" fill="#FEFFFF" transform="matrix(1.00, 0.00, -0.00, -1.00, 196.1, 245.0)">a</text><text xml:space="preserve" font-family="Helvetica-Light" font-size="15.0" fill="#FEFFFF" transform="matrix(1.00, 0.00, -0.00, -1.00, 204.4, 245.0)">c</text><text xml:space="preserve" font-family="Helvetica-Light" font-size="15.0" fill="#FEFFFF" transform="matrix(1.00, 0.00, -0.00, -1.00, 212.7, 245.0)">c</text><text xml:space="preserve" font-family="Helvetica-Light" font-size="15.0" fill="#FEFFFF" transform="matrix(1.00, 0.00, -0.00, -1.00, 221.1, 245.0)">e</text><text xml:space="preserve" font-family="Helvetica-Light" font-size="15.0" fill="#FEFFFF" transform="matrix(1.00, 0.00, -0.00, -1.00, 229.4, 245.0)">s</text><text xml:space="preserve" font-family="Helvetica-Light" font-size="15.0" fill="#FEFFFF" transform="matrix(1.00, 0.00, -0.00, -1.00, 236.9, 245.0)">s</text><text xml:space="preserve" font-family="Helvetica-Light" font-size="15.0" fill="#FEFFFF" transform="matrix(1.00, 0.00, -0.00, -1.00, 244.4, 245.0)"> </text><text xml:space="preserve" font-family="Helvetica-Light" font-size="15.0" fill="#FEFFFF" transform="matrix(1.00, 0.00, -0.00, -1.00, 248.6, 245.0)">S</text><text xml:space="preserve" font-family="Helvetica-Light" font-size="15.0" fill="#FEFFFF" transform="matrix(1.00, 0.00, -0.00, -1.00, 257.8, 245.0)">p</text><text xml:space="preserve" font-family="Helvetica-Light" font-size="15.0" fill="#FEFFFF" transform="matrix(1.00, 0.00, -0.00, -1.00, 266.9, 245.0)">a</text><text xml:space="preserve" font-family="Helvetica-Light" font-size="15.0" fill="#FEFFFF" transform="matrix(1.00, 0.00, -0.00, -1.00, 275.3, 245.0)">r</text><text xml:space="preserve" font-family="Helvetica-Light" font-size="15.0" fill="#FEFFFF" transform="matrix(1.00, 0.00, -0.00, -1.00, 280.2, 245.0)">k</text><text xml:space="preserve" font-family="Helvetica-Light" font-size="15.0" fill="#FEFFFF" transform="matrix(1.00, 0.00, -0.00, -1.00, 287.8, 245.0)"> </text><text xml:space="preserve" font-family="Helvetica-Light" font-size="15.0" fill="#FEFFFF" transform="matrix(1.00, 0.00, -0.00, -1.00, 291.9, 245.0)">t</text><text xml:space="preserve" font-family="Helvetica-Light" font-size="15.0" fill="#FEFFFF" transform="matrix(1.00, 0.00, -0.00, -1.00, 296.1, 245.0)">h</text><text xml:space="preserve" font-family="Helvetica-Light" font-size="15.0" fill="#FEFFFF" transform="matrix(1.00, 0.00, -0.00, -1.00, 304.4, 245.0)">r</text><text xml:space="preserve" font-family="Helvetica-Light" font-size="15.0" fill="#FEFFFF" transform="matrix(1.00, 0.00, -0.00, -1.00, 309.2, 245.0)">o</text><text xml:space="preserve" font-family="Helvetica-Light" font-size="15.0" fill="#FEFFFF" transform="matrix(1.00, 0.00, -0.00, -1.00, 317.5, 245.0)">u</text><text xml:space="preserve" font-family="Helvetica-Light" font-size="15.0" fill="#FEFFFF" transform="matrix(1.00, 0.00, -0.00, -1.00, 325.8, 245.0)">g</text><text xml:space="preserve" font-family="Helvetica-Light" font-size="15.0" fill="#FEFFFF" transform="matrix(1.00, 0.00, -0.00, -1.00, 335.0, 245.0)">h</text><text xml:space="preserve" font-family="Helvetica-Light" font-size="15.0" fill="#FEFFFF" transform="matrix(1.00, 0.00, -0.00, -1.00, 343.3, 245.0)"> </text><text xml:space="preserve" font-family="Helvetica-Light" font-size="15.0" fill="#FEFFFF" transform="matrix(1.00, 0.00, -0.00, -1.00, 347.5, 245.0)">a</text><text xml:space="preserve" font-family="Helvetica-Light" font-size="15.0" fill="#FEFFFF" transform="matrix(1.00, 0.00, -0.00, -1.00, 355.8, 245.0)"> </text><text xml:space="preserve" font-family="Helvetica-Light" font-size="15.0" fill="#FEFFFF" transform="matrix(1.00, 0.00, -0.00, -1.00, 360.0, 245.0)">S</text><text xml:space="preserve" font-family="Helvetica-Light" font-size="15.0" fill="#FEFFFF" transform="matrix(1.00, 0.00, -0.00, -1.00, 369.2, 245.0)">p</text><text xml:space="preserve" font-family="Helvetica-Light" font-size="15.0" fill="#FEFFFF" transform="matrix(1.00, 0.00, -0.00, -1.00, 378.4, 245.0)">a</text><text xml:space="preserve" font-family="Helvetica-Light" font-size="15.0" fill="#FEFFFF" transform="matrix(1.00, 0.00, -0.00, -1.00, 386.7, 245.0)">r</text><text xml:space="preserve" font-family="Helvetica-Light" font-size="15.0" fill="#FEFFFF" transform="matrix(1.00, 0.00, -0.00, -1.00, 391.7, 245.0)">k</text><text xml:space="preserve" font-family="Helvetica-Light" font-size="15.0" fill="#FEFFFF" transform="matrix(1.00, 0.00, -0.00, -1.00, 399.2, 245.0)">C</text><text xml:space="preserve" font-family="Helvetica-Light" font-size="15.0" fill="#FEFFFF" transform="matrix(1.00, 0.00, -0.00, -1.00, 410.0, 245.0)">o</text><text xml:space="preserve" font-family="Helvetica-Light" font-size="15.0" fill="#FEFFFF" transform="matrix(1.00, 0.00, -0.00, -1.00, 418.4, 245.0)">n</text><text xml:space="preserve" font-family="Helvetica-Light" font-size="15.0" fill="#FEFFFF" transform="matrix(1.00, 0.00, -0.00, -1.00, 426.7, 245.0)">t</text><text xml:space="preserve" font-family="Helvetica-Light" font-size="15.0" fill="#FEFFFF" transform="matrix(1.00, 0.00, -0.00, -1.00, 430.9, 245.0)">e</text><text xml:space="preserve" font-family="Helvetica-Light" font-size="15.0" fill="#FEFFFF" transform="matrix(1.00, 0.00, -0.00, -1.00, 439.2, 245.0)">x</text><text xml:space="preserve" font-family="Helvetica-Light" font-size="15.0" fill="#FEFFFF" transform="matrix(1.00, 0.00, -0.00, -1.00, 446.7, 245.0)">t</text><text xml:space="preserve" font-family="Helvetica-Light" font-size="15.0" fill="#FEFFFF" transform="matrix(1.00, 0.00, -0.00, -1.00, 450.9, 245.0)"> </text><text xml:space="preserve" font-family="Helvetica-Light" font-size="15.0" fill="#FEFFFF" transform="matrix(1.00, 0.00, -0.00, -1.00, 455.0, 245.0)">o</text><text xml:space="preserve" font-family="Helvetica-Light" font-size="15.0" fill="#FEFFFF" transform="matrix(1.00, 0.00, -0.00, -1.00, 463.4, 245.0)">b</text><text xml:space="preserve" font-family="Helvetica-Light" font-size="15.0" fill="#FEFFFF" transform="matrix(1.00, 0.00, -0.00, -1.00, 472.5, 245.0)">j</text><text xml:space="preserve" font-family="Helvetica-Light" font-size="15.0" fill="#FEFFFF" transform="matrix(1.00, 0.00, -0.00, -1.00, 475.9, 245.0)">e</text><text xml:space="preserve" font-family="Helvetica-Light" font-size="15.0" fill="#FEFFFF" transform="matrix(1.00, 0.00, -0.00, -1.00, 484.2, 245.0)">c</text><text xml:space="preserve" font-family="Helvetica-Light" font-size="15.0" fill="#FEFFFF" transform="matrix(1.00, 0.00, -0.00, -1.00, 492.6, 245.0)">t</text><text xml:space="preserve" font-family="Helvetica-Light" font-size="15.0" fill="#FEFFFF" transform="matrix(1.00, 0.00, -0.00, -1.00, 496.7, 245.0)">,</text><text xml:space="preserve" font-family="Helvetica-Light" font-size="15.0" fill="#FEFFFF" transform="matrix(1.00, 0.00, -0.00, -1.00, 500.9, 245.0)"> </text><text xml:space="preserve" font-family="Helvetica-Light" font-size="15.0" fill="#FEFFFF" transform="matrix(1.00, 0.00, -0.00, -1.00, 505.1, 245.0)">w</text><text xml:space="preserve" font-family="Helvetica-Light" font-size="15.0" fill="#FEFFFF" transform="matrix(1.00, 0.00, -0.00, -1.00, 515.9, 245.0)">h</text><text xml:space="preserve" font-family="Helvetica-Light" font-size="15.0" fill="#FEFFFF" transform="matrix(1.00, 0.00, -0.00, -1.00, 524.2, 245.0)">i</text><text xml:space="preserve" font-family="Helvetica-Light" font-size="15.0" fill="#FEFFFF" transform="matrix(1.00, 0.00, -0.00, -1.00, 527.6, 245.0)">c</text><text xml:space="preserve" font-family="Helvetica-Light" font-size="15.0" fill="#FEFFFF" transform="matrix(1.00, 0.00, -0.00, -1.00, 535.9, 245.0)">h</text><text xml:space="preserve" font-family="Helvetica-Light" font-size="15.0" fill="#FEFFFF" transform="matrix(1.00, 0.00, -0.00, -1.00, 544.2, 245.0)"> </text><text xml:space="preserve" font-family="Helvetica-Light" font-size="15.0" fill="#FEFFFF" transform="matrix(1.00, 0.00, -0.00, -1.00, 548.4, 245.0)">r</text><text xml:space="preserve" font-family="Helvetica-Light" font-size="15.0" fill="#FEFFFF" transform="matrix(1.00, 0.00, -0.00, -1.00, 553.1, 245.0)">e</text><text xml:space="preserve" font-family="Helvetica-Light" font-size="15.0" fill="#FEFFFF" transform="matrix(1.00, 0.00, -0.00, -1.00, 561.5, 245.0)">p</text><text xml:space="preserve" font-family="Helvetica-Light" font-size="15.0" fill="#FEFFFF" transform="matrix(1.00, 0.00, -0.00, -1.00, 570.6, 245.0)">r</text><text xml:space="preserve" font-family="Helvetica-Light" font-size="15.0" fill="#FEFFFF" transform="matrix(1.00, 0.00, -0.00, -1.00, 575.4, 245.0)">e</text><text xml:space="preserve" font-family="Helvetica-Light" font-size="15.0" fill="#FEFFFF" transform="matrix(1.00, 0.00, -0.00, -1.00, 583.7, 245.0)">s</text><text xml:space="preserve" font-family="Helvetica-Light" font-size="15.0" fill="#FEFFFF" transform="matrix(1.00, 0.00, -0.00, -1.00, 591.2, 245.0)">e</text><text xml:space="preserve" font-family="Helvetica-Light" font-size="15.0" fill="#FEFFFF" transform="matrix(1.00, 0.00, -0.00, -1.00, 599.6, 245.0)">n</text><text xml:space="preserve" font-family="Helvetica-Light" font-size="15.0" fill="#FEFFFF" transform="matrix(1.00, 0.00, -0.00, -1.00, 607.9, 245.0)">t</text><text xml:space="preserve" font-family="Helvetica-Light" font-size="15.0" fill="#FEFFFF" transform="matrix(1.00, 0.00, -0.00, -1.00, 612.1, 245.0)">s</text><text xml:space="preserve" font-family="Helvetica-Light" font-size="15.0" fill="#FEFFFF" transform="matrix(1.00, 0.00, -0.00, -1.00, 619.6, 245.0)"> </text><text xml:space="preserve" font-family="Helvetica-Light" font-size="15.0" fill="#FEFFFF" transform="matrix(1.00, 0.00, -0.00, -1.00, 623.7, 245.0)">a</text><text xml:space="preserve" font-family="Helvetica-Light" font-size="15.0" fill="#FEFFFF" transform="matrix(1.00, 0.00, -0.00, -1.00, 632.1, 245.0)"> </text><text xml:space="preserve" font-family="Helvetica-Light" font-size="15.0" fill="#FEFFFF" transform="matrix(1.00, 0.00, -0.00, -1.00, 636.2, 245.0)">c</text><text xml:space="preserve" font-family="Helvetica-Light" font-size="15.0" fill="#FEFFFF" transform="matrix(1.00, 0.00, -0.00, -1.00, 644.6, 245.0)">o</text><text xml:space="preserve" font-family="Helvetica-Light" font-size="15.0" fill="#FEFFFF" transform="matrix(1.00, 0.00, -0.00, -1.00, 652.9, 245.0)">n</text><text xml:space="preserve" font-family="Helvetica-Light" font-size="15.0" fill="#FEFFFF" transform="matrix(1.00, 0.00, -0.00, -1.00, 661.3, 245.0)">n</text><text xml:space="preserve" font-family="Helvetica-Light" font-size="15.0" fill="#FEFFFF" transform="matrix(1.00, 0.00, -0.00, -1.00, 669.6, 245.0)">e</text><text xml:space="preserve" font-family="Helvetica-Light" font-size="15.0" fill="#FEFFFF" transform="matrix(1.00, 0.00, -0.00, -1.00, 677.9, 245.0)">c</text><text xml:space="preserve" font-family="Helvetica-Light" font-size="15.0" fill="#FEFFFF" transform="matrix(1.00, 0.00, -0.00, -1.00, 686.3, 245.0)">t</text><text xml:space="preserve" font-family="Helvetica-Light" font-size="15.0" fill="#FEFFFF" transform="matrix(1.00, 0.00, -0.00, -1.00, 690.5, 245.0)">i</text><text xml:space="preserve" font-family="Helvetica-Light" font-size="15.0" fill="#FEFFFF" transform="matrix(1.00, 0.00, -0.00, -1.00, 693.8, 245.0)">o</text><text xml:space="preserve" font-family="Helvetica-Light" font-size="15.0" fill="#FEFFFF" transform="matrix(1.00, 0.00, -0.00, -1.00, 702.1, 245.0)">n</text><text xml:space="preserve" font-family="Helvetica-Light" font-size="15.0" fill="#FEFFFF" transform="matrix(1.00, 0.00, -0.00, -1.00, 710.5, 245.0)"> </text><text xml:space="preserve" font-family="Helvetica-Light" font-size="15.0" fill="#FEFFFF" transform="matrix(1.00, 0.00, -0.00, -1.00, 714.6, 245.0)">t</text><text xml:space="preserve" font-family="Helvetica-Light" font-size="15.0" fill="#FEFFFF" transform="matrix(1.00, 0.00, -0.00, -1.00, 718.8, 245.0)">o</text><text xml:space="preserve" font-family="Helvetica-Light" font-size="15.0" fill="#FEFFFF" transform="matrix(1.00, 0.00, -0.00, -1.00, 727.1, 245.0)"> </text><text xml:space="preserve" font-family="Helvetica-Light" font-size="15.0" fill="#FEFFFF" transform="matrix(1.00, 0.00, -0.00, -1.00, 731.3, 245.0)">a</text><text xml:space="preserve" font-family="Helvetica-Light" font-size="15.0" fill="#FEFFFF" transform="matrix(1.00, 0.00, -0.00, -1.00, 739.7, 245.0)"> </text><text xml:space="preserve" font-family="Helvetica-Light" font-size="15.0" fill="#FEFFFF" transform="matrix(1.00, 0.00, -0.00, -1.00, 743.8, 245.0)">c</text><text xml:space="preserve" font-family="Helvetica-Light" font-size="15.0" fill="#FEFFFF" transform="matrix(1.00, 0.00, -0.00, -1.00, 752.2, 245.0)">o</text><text xml:space="preserve" font-family="Helvetica-Light" font-size="15.0" fill="#FEFFFF" transform="matrix(1.00, 0.00, -0.00, -1.00, 760.5, 245.0)">m</text><text xml:space="preserve" font-family="Helvetica-Light" font-size="15.0" fill="#FEFFFF" transform="matrix(1.00, 0.00, -0.00, -1.00, 773.0, 245.0)">p</text><text xml:space="preserve" font-family="Helvetica-Light" font-size="15.0" fill="#FEFFFF" transform="matrix(1.00, 0.00, -0.00, -1.00, 782.2, 245.0)">u</text><text xml:space="preserve" font-family="Helvetica-Light" font-size="15.0" fill="#FEFFFF" transform="matrix(1.00, 0.00, -0.00, -1.00, 790.5, 245.0)">t</text><text xml:space="preserve" font-family="Helvetica-Light" font-size="15.0" fill="#FEFFFF" transform="matrix(1.00, 0.00, -0.00, -1.00, 794.7, 245.0)">i</text><text xml:space="preserve" font-family="Helvetica-Light" font-size="15.0" fill="#FEFFFF" transform="matrix(1.00, 0.00, -0.00, -1.00, 798.0, 245.0)">n</text><text xml:space="preserve" font-family="Helvetica-Light" font-size="15.0" fill="#FEFFFF" transform="matrix(1.00, 0.00, -0.00, -1.00, 806.3, 245.0)">g</text><text xml:space="preserve" font-family="Helvetica-Light" font-size="15.0" fill="#FEFFFF" transform="matrix(1.00, 0.00, -0.00, -1.00, 815.5, 245.0)"> </text><text xml:space="preserve" font-family="Helvetica-Light" font-size="15.0" fill="#FEFFFF" transform="matrix(1.00, 0.00, -0.00, -1.00, 819.7, 245.0)">c</text><text xml:space="preserve" font-family="Helvetica-Light" font-size="15.0" fill="#FEFFFF" transform="matrix(1.00, 0.00, -0.00, -1.00, 828.0, 245.0)">l</text><text xml:space="preserve" font-family="Helvetica-Light" font-size="15.0" fill="#FEFFFF" transform="matrix(1.00, 0.00, -0.00, -1.00, 831.4, 245.0)">u</text><text xml:space="preserve" font-family="Helvetica-Light" font-size="15.0" fill="#FEFFFF" transform="matrix(1.00, 0.00, -0.00, -1.00, 839.7, 245.0)">s</text><text xml:space="preserve" font-family="Helvetica-Light" font-size="15.0" fill="#FEFFFF" transform="matrix(1.00, 0.00, -0.00, -1.00, 847.2, 245.0)">t</text><text xml:space="preserve" font-family="Helvetica-Light" font-size="15.0" fill="#FEFFFF" transform="matrix(1.00, 0.00, -0.00, -1.00, 851.4, 245.0)">e</text><text xml:space="preserve" font-family="Helvetica-Light" font-size="15.0" fill="#FEFFFF" transform="matrix(1.00, 0.00, -0.00, -1.00, 859.7, 245.0)">r</text><text xml:space="preserve" font-family="Helvetica-Light" font-size="15.0" fill="#FEFFFF" transform="matrix(1.00, 0.00, -0.00, -1.00, 863.3, 245.0)">.</text><text xml:space="preserve" font-family="Helvetica-Light" font-size="15.0" fill="#FEFFFF" transform="matrix(1.00, 0.00, -0.00, -1.00, 867.5, 245.0)"> </text></g></svg>