<?xml version="1.0" encoding="UTF-8" standalone="no"?><svg xmlns="http://www.w3.org/2000/svg" xmlns:xlink="http://www.w3.org/1999/xlink" clip-rule="evenodd" stroke-miterlimit="4.00" viewBox="0 0 1024 768"><desc>SVG generated by Keynote</desc><defs></defs><g transform="matrix(1.00, 0.00, -0.00, -1.00, 0.0, 768.0)"><path d="M 0.0 768.0 L 1024.0 768.0 L 1024.0 0.0 L 0.0 0.0 Z M 0.0 768.0 " fill="#000000"></path><text xml:space="preserve" font-family="Helvetica-Light" font-size="80.0" fill="#FEFFFF" transform="matrix(1.00, 0.00, -0.00, -1.00, 194.0, 633.0)">C</text><text xml:space="preserve" font-family="Helvetica-Light" font-size="80.0" fill="#FEFFFF" transform="matrix(1.00, 0.00, -0.00, -1.00, 251.8, 633.0)">o</text><text xml:space="preserve" font-family="Helvetica-Light" font-size="80.0" fill="#FEFFFF" transform="matrix(1.00, 0.00, -0.00, -1.00, 296.2, 633.0)">n</text><text xml:space="preserve" font-family="Helvetica-Light" font-size="80.0" fill="#FEFFFF" transform="matrix(1.00, 0.00, -0.00, -1.00, 340.7, 633.0)">t</text><text xml:space="preserve" font-family="Helvetica-Light" font-size="80.0" fill="#FEFFFF" transform="matrix(1.00, 0.00, -0.00, -1.00, 363.0, 633.0)">e</text><text xml:space="preserve" font-family="Helvetica-Light" font-size="80.0" fill="#FEFFFF" transform="matrix(1.00, 0.00, -0.00, -1.00, 407.4, 633.0)">x</text><text xml:space="preserve" font-family="Helvetica-Light" font-size="80.0" fill="#FEFFFF" transform="matrix(1.00, 0.00, -0.00, -1.00, 447.4, 633.0)">t</text><text xml:space="preserve" font-family="Helvetica-Light" font-size="80.0" fill="#FEFFFF" transform="matrix(1.00, 0.00, -0.00, -1.00, 469.7, 633.0)"> </text><text xml:space="preserve" font-family="Helvetica-Light" font-size="80.0" fill="#FEFFFF" transform="matrix(1.00, 0.00, -0.00, -1.00, 491.9, 633.0)">w</text><text xml:space="preserve" font-family="Helvetica-Light" font-size="80.0" fill="#FEFFFF" transform="matrix(1.00, 0.00, -0.00, -1.00, 549.7, 633.0)">r</text><text xml:space="preserve" font-family="Helvetica-Light" font-size="80.0" fill="#FEFFFF" transform="matrix(1.00, 0.00, -0.00, -1.00, 576.3, 633.0)">a</text><text xml:space="preserve" font-family="Helvetica-Light" font-size="80.0" fill="#FEFFFF" transform="matrix(1.00, 0.00, -0.00, -1.00, 620.8, 633.0)">p</text><text xml:space="preserve" font-family="Helvetica-Light" font-size="80.0" fill="#FEFFFF" transform="matrix(1.00, 0.00, -0.00, -1.00, 669.7, 633.0)">p</text><text xml:space="preserve" font-family="Helvetica-Light" font-size="80.0" fill="#FEFFFF" transform="matrix(1.00, 0.00, -0.00, -1.00, 718.6, 633.0)">i</text><text xml:space="preserve" font-family="Helvetica-Light" font-size="80.0" fill="#FEFFFF" transform="matrix(1.00, 0.00, -0.00, -1.00, 736.3, 633.0)">n</text><text xml:space="preserve" font-family="Helvetica-Light" font-size="80.0" fill="#FEFFFF" transform="matrix(1.00, 0.00, -0.00, -1.00, 780.8, 633.0)">g</text><text xml:space="preserve" font-family="Helvetica-Light" font-size="38.0" fill="#FEFFFF" transform="matrix(1.00, 0.00, -0.00, -1.00, 93.0, 490.0)">“</text><text xml:space="preserve" font-family="Helvetica-Light" font-size="38.0" fill="#FEFFFF" transform="matrix(1.00, 0.00, -0.00, -1.00, 107.8, 490.0)">J</text><text xml:space="preserve" font-family="Helvetica-Light" font-size="38.0" fill="#FEFFFF" transform="matrix(1.00, 0.00, -0.00, -1.00, 126.8, 490.0)">u</text><text xml:space="preserve" font-family="Helvetica-Light" font-size="38.0" fill="#FEFFFF" transform="matrix(1.00, 0.00, -0.00, -1.00, 147.9, 490.0)">s</text><text xml:space="preserve" font-family="Helvetica-Light" font-size="38.0" fill="#FEFFFF" transform="matrix(1.00, 0.00, -0.00, -1.00, 166.9, 490.0)">t</text><text xml:space="preserve" font-family="Helvetica-Light" font-size="38.0" fill="#FEFFFF" transform="matrix(1.00, 0.00, -0.00, -1.00, 177.5, 490.0)"> </text><text xml:space="preserve" font-family="Helvetica-Light" font-size="38.0" fill="#FEFFFF" transform="matrix(1.00, 0.00, -0.00, -1.00, 188.0, 490.0)">a</text><text xml:space="preserve" font-family="Helvetica-Light" font-size="38.0" fill="#FEFFFF" transform="matrix(1.00, 0.00, -0.00, -1.00, 209.2, 490.0)">”</text><text xml:space="preserve" font-family="Helvetica-Light" font-size="38.0" fill="#FEFFFF" transform="matrix(1.00, 0.00, -0.00, -1.00, 223.9, 490.0)"> </text><text xml:space="preserve" font-family="Helvetica-Light" font-size="38.0" fill="#FEFFFF" transform="matrix(1.00, 0.00, -0.00, -1.00, 234.5, 490.0)">m</text><text xml:space="preserve" font-family="Helvetica-Light" font-size="38.0" fill="#FEFFFF" transform="matrix(1.00, 0.00, -0.00, -1.00, 266.2, 490.0)">e</text><text xml:space="preserve" font-family="Helvetica-Light" font-size="38.0" fill="#FEFFFF" transform="matrix(1.00, 0.00, -0.00, -1.00, 287.3, 490.0)">a</text><text xml:space="preserve" font-family="Helvetica-Light" font-size="38.0" fill="#FEFFFF" transform="matrix(1.00, 0.00, -0.00, -1.00, 308.4, 490.0)">n</text><text xml:space="preserve" font-family="Helvetica-Light" font-size="38.0" fill="#FEFFFF" transform="matrix(1.00, 0.00, -0.00, -1.00, 329.5, 490.0)">s</text><text xml:space="preserve" font-family="Helvetica-Light" font-size="38.0" fill="#FEFFFF" transform="matrix(1.00, 0.00, -0.00, -1.00, 348.5, 490.0)"> </text><text xml:space="preserve" font-family="Helvetica-Light" font-size="38.0" fill="#FEFFFF" transform="matrix(1.00, 0.00, -0.00, -1.00, 359.1, 490.0)">v</text><text xml:space="preserve" font-family="Helvetica-Light" font-size="38.0" fill="#FEFFFF" transform="matrix(1.00, 0.00, -0.00, -1.00, 378.1, 490.0)">a</text><text xml:space="preserve" font-family="Helvetica-Light" font-size="38.0" fill="#FEFFFF" transform="matrix(1.00, 0.00, -0.00, -1.00, 399.2, 490.0)">l</text><text xml:space="preserve" font-family="Helvetica-Light" font-size="38.0" fill="#FEFFFF" transform="matrix(1.00, 0.00, -0.00, -1.00, 407.7, 490.0)">u</text><text xml:space="preserve" font-family="Helvetica-Light" font-size="38.0" fill="#FEFFFF" transform="matrix(1.00, 0.00, -0.00, -1.00, 428.8, 490.0)">e</text><text xml:space="preserve" font-family="Helvetica-Light" font-size="38.0" fill="#FEFFFF" transform="matrix(1.00, 0.00, -0.00, -1.00, 449.9, 490.0)"> </text><text xml:space="preserve" font-family="Helvetica-Light" font-size="38.0" fill="#FEFFFF" transform="matrix(1.00, 0.00, -0.00, -1.00, 460.5, 490.0)">a</text><text xml:space="preserve" font-family="Helvetica-Light" font-size="38.0" fill="#FEFFFF" transform="matrix(1.00, 0.00, -0.00, -1.00, 481.6, 490.0)"> </text><text xml:space="preserve" font-family="Helvetica-Light" font-size="38.0" fill="#FEFFFF" transform="matrix(1.00, 0.00, -0.00, -1.00, 492.2, 490.0)">i</text><text xml:space="preserve" font-family="Helvetica-Light" font-size="38.0" fill="#FEFFFF" transform="matrix(1.00, 0.00, -0.00, -1.00, 500.6, 490.0)">s</text><text xml:space="preserve" font-family="Helvetica-Light" font-size="38.0" fill="#FEFFFF" transform="matrix(1.00, 0.00, -0.00, -1.00, 519.6, 490.0)"> </text><text xml:space="preserve" font-family="Helvetica-Light" font-size="38.0" fill="#FEFFFF" transform="matrix(1.00, 0.00, -0.00, -1.00, 530.2, 490.0)">w</text><text xml:space="preserve" font-family="Helvetica-Light" font-size="38.0" fill="#FEFFFF" transform="matrix(1.00, 0.00, -0.00, -1.00, 557.6, 490.0)">r</text><text xml:space="preserve" font-family="Helvetica-Light" font-size="38.0" fill="#FEFFFF" transform="matrix(1.00, 0.00, -0.00, -1.00, 570.3, 490.0)">a</text><text xml:space="preserve" font-family="Helvetica-Light" font-size="38.0" fill="#FEFFFF" transform="matrix(1.00, 0.00, -0.00, -1.00, 591.4, 490.0)">p</text><text xml:space="preserve" font-family="Helvetica-Light" font-size="38.0" fill="#FEFFFF" transform="matrix(1.00, 0.00, -0.00, -1.00, 614.6, 490.0)">p</text><text xml:space="preserve" font-family="Helvetica-Light" font-size="38.0" fill="#FEFFFF" transform="matrix(1.00, 0.00, -0.00, -1.00, 637.8, 490.0)">e</text><text xml:space="preserve" font-family="Helvetica-Light" font-size="38.0" fill="#FEFFFF" transform="matrix(1.00, 0.00, -0.00, -1.00, 659.0, 490.0)">d</text><text xml:space="preserve" font-family="Helvetica-Light" font-size="38.0" fill="#FEFFFF" transform="matrix(1.00, 0.00, -0.00, -1.00, 682.2, 490.0)"> </text><text xml:space="preserve" font-family="Helvetica-Light" font-size="38.0" fill="#FEFFFF" transform="matrix(1.00, 0.00, -0.00, -1.00, 692.8, 490.0)">i</text><text xml:space="preserve" font-family="Helvetica-Light" font-size="38.0" fill="#FEFFFF" transform="matrix(1.00, 0.00, -0.00, -1.00, 701.2, 490.0)">n</text><text xml:space="preserve" font-family="Helvetica-Light" font-size="38.0" fill="#FEFFFF" transform="matrix(1.00, 0.00, -0.00, -1.00, 722.3, 490.0)"> </text><text xml:space="preserve" font-family="Helvetica-Light" font-size="38.0" fill="#FEFFFF" transform="matrix(1.00, 0.00, -0.00, -1.00, 732.9, 490.0)">t</text><text xml:space="preserve" font-family="Helvetica-Light" font-size="38.0" fill="#FEFFFF" transform="matrix(1.00, 0.00, -0.00, -1.00, 743.4, 490.0)">h</text><text xml:space="preserve" font-family="Helvetica-Light" font-size="38.0" fill="#FEFFFF" transform="matrix(1.00, 0.00, -0.00, -1.00, 764.6, 490.0)">e</text><text xml:space="preserve" font-family="Helvetica-Light" font-size="38.0" fill="#FEFFFF" transform="matrix(1.00, 0.00, -0.00, -1.00, 785.7, 490.0)"> </text><text xml:space="preserve" font-family="Helvetica-Light" font-size="38.0" fill="#FEFFFF" transform="matrix(1.00, 0.00, -0.00, -1.00, 796.3, 490.0)">c</text><text xml:space="preserve" font-family="Helvetica-Light" font-size="38.0" fill="#FEFFFF" transform="matrix(1.00, 0.00, -0.00, -1.00, 817.4, 490.0)">o</text><text xml:space="preserve" font-family="Helvetica-Light" font-size="38.0" fill="#FEFFFF" transform="matrix(1.00, 0.00, -0.00, -1.00, 838.5, 490.0)">n</text><text xml:space="preserve" font-family="Helvetica-Light" font-size="38.0" fill="#FEFFFF" transform="matrix(1.00, 0.00, -0.00, -1.00, 859.6, 490.0)">t</text><text xml:space="preserve" font-family="Helvetica-Light" font-size="38.0" fill="#FEFFFF" transform="matrix(1.00, 0.00, -0.00, -1.00, 870.2, 490.0)">e</text><text xml:space="preserve" font-family="Helvetica-Light" font-size="38.0" fill="#FEFFFF" transform="matrix(1.00, 0.00, -0.00, -1.00, 891.3, 490.0)">x</text><text xml:space="preserve" font-family="Helvetica-Light" font-size="38.0" fill="#FEFFFF" transform="matrix(1.00, 0.00, -0.00, -1.00, 910.3, 490.0)">t</text><text xml:space="preserve" font-family="Helvetica-Light" font-size="38.0" fill="#FEFFFF" transform="matrix(1.00, 0.00, -0.00, -1.00, 920.9, 490.0)"> </text><text xml:space="preserve" font-family="Helvetica-Light" font-size="38.0" fill="#FEFFFF" transform="matrix(1.00, 0.00, -0.00, -1.00, 93.0, 444.0)">J</text><text xml:space="preserve" font-family="Helvetica-Light" font-size="38.0" fill="#FEFFFF" transform="matrix(1.00, 0.00, -0.00, -1.00, 112.0, 444.0)">u</text><text xml:space="preserve" font-family="Helvetica-Light" font-size="38.0" fill="#FEFFFF" transform="matrix(1.00, 0.00, -0.00, -1.00, 133.1, 444.0)">s</text><text xml:space="preserve" font-family="Helvetica-Light" font-size="38.0" fill="#FEFFFF" transform="matrix(1.00, 0.00, -0.00, -1.00, 152.1, 444.0)">t</text><g opacity="0.71"><g><clipPath id="clip-18"><path d="M 443.0 302.0 L 549.0 302.0 L 549.0 408.0 L 443.0 408.0 Z M 443.0 302.0 "></path></clipPath><g clip-path="url(#clip-18)"><path d="M 448.3 404.1 C 448.1 404.2 447.9 403.7 447.3 403.5 C 446.7 403.4 446.0 403.3 446.2 403.7 C 446.3 404.0 446.5 404.2 446.2 404.6 C 445.9 405.0 445.5 405.7 446.0 405.9 C 446.4 406.2 448.0 406.9 448.5 406.5 C 449.0 406.2 449.2 406.0 449.6 405.8 C 449.9 405.5 449.7 406.3 449.7 406.3 C 449.7 406.3 450.6 406.4 451.2 406.5 C 451.9 406.5 452.7 406.6 452.7 406.4 C 452.8 406.3 453.0 406.0 453.0 406.0 C 453.0 406.0 453.4 406.4 453.9 406.5 C 454.3 406.5 454.2 406.3 454.1 406.1 C 454.0 406.0 453.4 405.4 453.6 405.4 C 453.8 405.4 454.5 406.2 454.8 406.3 C 455.2 406.4 455.9 406.3 455.9 406.3 C 455.9 406.3 455.8 405.9 455.9 405.8 C 455.9 405.7 456.7 405.6 456.7 405.8 C 456.8 405.9 456.8 406.4 457.1 406.5 C 458.3 406.5 458.1 405.7 458.2 405.6 C 458.3 405.6 458.4 406.3 458.6 406.4 C 458.9 406.5 461.3 406.4 461.3 406.2 C 461.4 406.1 462.3 406.7 462.6 406.3 C 462.9 405.8 462.9 405.7 463.0 405.6 C 463.0 405.5 463.4 404.8 463.6 405.1 C 463.9 405.3 463.1 406.1 463.4 406.3 C 463.7 406.5 465.2 406.6 465.4 406.4 C 465.7 406.1 465.7 405.4 465.9 405.4 C 466.1 405.4 467.1 406.3 467.1 406.1 C 467.2 406.0 467.1 405.3 467.1 405.2 C 467.1 405.0 467.1 403.8 466.9 403.6 C 466.6 403.4 465.7 403.0 465.9 403.3 C 466.1 403.7 466.4 404.1 466.1 404.3 C 465.8 404.5 465.7 404.5 465.6 404.3 C 465.5 404.2 465.6 404.1 465.0 403.8 C 464.5 403.6 464.7 403.3 464.2 403.3 C 463.8 403.3 463.4 403.4 463.5 403.7 C 463.6 404.0 463.1 404.4 462.8 404.3 C 462.4 404.3 462.9 403.7 461.8 403.5 C 460.7 403.2 460.0 403.2 459.8 403.4 C 459.5 403.6 459.5 404.4 459.0 404.1 C 458.5 403.7 458.7 403.5 458.0 403.6 C 457.4 403.6 457.2 404.2 456.7 404.2 C 456.3 404.2 456.2 404.2 456.2 404.2 C 456.2 404.2 456.3 403.3 455.3 403.3 C 454.4 403.3 454.1 403.2 454.4 403.8 C 454.6 404.4 453.9 404.4 453.8 404.0 C 453.8 403.6 453.2 403.4 452.8 403.3 C 452.5 403.3 452.5 404.3 452.3 404.3 C 452.2 404.3 451.8 404.3 451.9 403.9 C 452.1 403.6 451.7 403.6 451.4 403.4 C 451.1 403.3 450.2 403.4 450.2 403.6 C 450.2 403.8 450.7 404.4 450.1 404.1 C 449.5 403.8 449.3 403.3 448.7 403.3 C 448.1 403.3 448.6 403.9 448.3 404.1 C 448.3 404.1 448.3 404.1 448.3 404.1 Z M 467.1 403.3 C 466.1 403.3 467.4 406.0 467.9 406.5 C 468.4 407.0 469.1 406.7 469.8 406.8 C 470.5 406.9 470.1 406.1 470.5 405.8 C 470.8 405.6 470.8 406.1 471.1 406.5 C 471.3 406.9 472.3 406.5 473.0 406.6 C 473.7 406.6 474.1 405.7 474.6 405.7 C 475.2 405.6 474.1 405.2 475.0 405.3 C 476.0 405.3 475.6 405.8 474.6 406.1 C 473.6 406.4 475.2 406.6 475.8 406.7 C 476.5 406.8 477.4 406.4 477.8 406.4 C 478.3 406.5 477.5 405.8 478.2 405.8 C 478.9 405.9 478.8 406.5 479.5 406.6 C 480.2 406.7 479.9 406.1 480.2 406.0 C 480.5 405.8 480.6 406.2 480.9 406.2 C 481.2 406.3 481.8 406.5 482.4 406.4 C 483.0 406.2 482.7 406.0 483.0 406.0 C 483.3 405.9 483.8 405.9 483.8 405.9 C 483.9 406.1 484.1 406.4 484.2 406.6 C 484.2 406.6 485.4 406.6 485.8 406.7 C 486.1 406.7 486.8 406.4 486.6 406.3 C 486.3 406.2 486.9 405.7 487.1 405.8 C 487.3 405.9 488.1 406.2 488.6 406.4 C 489.0 406.5 488.2 404.8 488.1 404.6 C 488.0 404.3 487.8 403.4 487.4 403.3 C 487.0 403.2 486.9 403.6 486.9 403.3 C 486.8 403.1 485.9 403.3 485.6 403.3 C 485.3 403.3 485.2 404.0 485.2 404.0 C 485.2 404.0 485.1 404.5 484.7 404.5 C 484.2 404.5 483.6 403.4 483.6 403.4 C 483.6 403.4 483.0 403.2 482.4 403.3 C 481.9 403.3 481.5 404.2 481.5 404.4 C 481.4 404.6 481.2 403.8 480.7 403.7 C 480.3 403.6 479.6 403.3 479.5 403.4 C 479.3 403.4 479.2 404.0 479.2 404.0 C 479.2 404.0 478.6 404.3 478.4 404.3 C 478.2 404.3 478.3 403.5 478.3 403.5 C 478.3 403.5 476.6 403.3 476.3 403.2 C 475.9 403.1 475.5 403.4 475.3 403.4 C 475.0 403.5 475.0 404.4 474.6 404.3 C 474.2 404.2 474.8 403.7 474.4 403.6 C 474.0 403.5 473.4 403.3 473.2 403.3 C 473.0 403.3 472.9 403.7 472.6 403.7 C 472.3 403.8 472.1 404.5 471.6 404.5 C 471.2 404.5 470.8 404.0 470.6 404.0 C 470.4 403.9 470.2 403.2 469.8 403.2 C 469.4 403.2 469.8 403.6 469.5 403.6 C 469.1 403.6 469.2 404.1 468.9 404.0 C 468.5 403.9 468.5 403.1 468.2 403.2 C 468.0 403.3 468.2 403.2 467.1 403.3 C 467.1 403.3 467.1 403.3 467.1 403.3 Z M 488.3 403.4 C 487.7 403.0 487.4 403.5 487.7 403.9 C 487.9 404.2 488.5 405.2 488.4 405.5 C 488.3 405.8 488.0 406.5 489.0 406.6 C 489.9 406.7 490.0 406.5 489.9 406.2 C 489.8 406.0 489.5 405.0 489.8 405.1 C 490.1 405.2 490.5 405.4 490.6 405.6 C 490.7 405.7 491.5 406.7 491.9 406.6 C 492.2 406.4 492.5 406.1 492.5 406.1 C 492.7 406.1 492.9 406.1 493.1 406.1 C 493.1 406.1 494.0 406.7 494.4 406.6 C 494.9 406.4 495.4 406.4 495.8 406.5 C 496.2 406.5 496.5 406.4 496.4 406.2 C 496.4 406.0 496.4 405.1 496.4 405.1 C 496.4 405.1 496.8 404.9 497.2 405.0 C 497.5 405.2 497.8 405.6 497.8 405.8 C 497.8 406.0 498.1 406.5 498.5 406.6 C 498.9 406.6 500.8 407.1 500.9 406.8 C 500.9 406.6 500.7 406.2 500.8 406.1 C 500.9 406.0 501.9 405.9 502.2 406.2 C 502.4 406.4 502.6 406.9 502.9 406.9 C 503.1 406.8 503.8 407.0 503.8 406.8 C 503.7 406.7 503.8 406.6 503.7 406.3 C 503.5 406.0 504.0 405.8 504.0 405.6 C 504.1 405.5 504.5 405.4 504.5 405.4 C 504.8 405.6 505.1 405.7 505.4 405.9 C 505.4 405.9 505.3 406.4 505.2 406.5 C 505.1 406.6 505.6 406.9 505.8 407.0 C 506.0 407.0 507.1 406.9 507.1 406.9 C 506.9 406.5 506.7 406.2 506.4 405.8 C 506.7 405.7 506.9 405.6 507.1 405.5 C 507.1 405.5 507.8 406.9 508.4 406.9 C 508.9 406.9 509.6 406.9 509.6 406.9 C 509.6 406.9 509.8 406.4 509.9 406.3 C 510.0 406.3 509.3 405.1 509.3 405.1 C 509.0 404.6 508.7 404.2 508.3 403.7 C 508.3 403.7 507.4 403.2 507.2 403.4 C 506.9 403.6 507.5 404.1 507.6 404.3 C 507.7 404.6 507.3 404.8 507.3 404.8 C 506.9 404.5 506.5 404.3 506.1 404.0 C 506.1 404.0 505.8 403.8 505.4 403.5 C 505.0 403.3 504.1 403.2 503.9 403.3 C 503.8 403.4 503.7 403.7 503.6 403.9 C 503.4 404.1 503.7 404.6 503.2 404.2 C 502.6 403.9 502.2 403.5 502.1 403.5 C 501.9 403.5 501.4 404.0 501.4 404.0 C 501.2 404.1 501.1 404.2 500.9 404.3 C 500.9 404.3 500.5 404.6 500.2 404.3 C 500.0 404.0 499.0 404.3 499.0 404.3 C 499.0 404.3 498.7 403.5 498.3 403.4 C 498.0 403.2 497.4 403.0 497.0 403.2 C 496.6 403.3 496.7 404.1 496.7 404.1 C 496.4 403.9 496.2 403.7 495.9 403.5 C 495.5 403.4 495.0 403.4 494.5 403.3 C 494.5 403.3 493.6 403.4 493.6 403.5 C 493.7 403.6 494.1 404.3 494.2 404.5 C 494.2 404.7 493.8 404.9 493.6 404.7 C 493.5 404.5 492.7 403.8 492.7 403.8 C 492.7 403.8 492.1 403.4 491.8 403.4 C 491.4 403.3 491.1 403.5 491.0 403.7 C 491.0 403.8 490.7 404.3 490.7 404.3 C 490.5 404.1 490.3 403.9 490.1 403.7 C 490.1 403.7 489.4 404.0 488.3 403.4 C 488.3 403.4 488.3 403.4 488.3 403.4 Z M 508.5 403.3 C 507.5 403.3 509.9 406.0 510.6 406.5 C 511.4 407.0 511.9 406.7 512.7 406.8 C 513.4 406.9 512.6 406.1 512.9 405.8 C 513.1 405.6 513.4 406.1 513.8 406.5 C 514.2 406.9 515.1 406.5 515.8 406.6 C 516.5 406.6 516.5 405.7 517.0 405.7 C 517.5 405.6 516.3 405.2 517.2 405.3 C 518.2 405.3 518.1 405.8 517.2 406.1 C 516.3 406.4 518.0 406.6 518.7 406.7 C 519.3 406.8 520.0 406.4 520.6 406.4 C 521.1 406.5 520.0 405.8 520.7 405.8 C 521.4 405.9 521.5 406.5 522.3 406.6 C 523.1 406.7 522.5 406.1 522.8 406.0 C 523.0 405.8 523.2 406.2 523.5 406.2 C 523.9 406.3 524.5 406.5 525.1 406.4 C 525.6 406.2 525.3 406.0 525.5 406.0 C 525.8 405.9 526.3 405.9 526.3 405.9 C 526.5 406.1 526.7 406.4 527.0 406.6 C 527.0 406.6 528.2 406.6 528.6 406.7 C 529.0 406.7 529.5 406.4 529.2 406.3 C 528.9 406.2 529.3 405.7 529.6 405.8 C 529.8 405.9 530.7 406.2 531.3 406.4 C 531.8 406.5 530.2 404.8 530.0 404.6 C 529.8 404.3 529.3 403.4 528.8 403.3 C 528.4 403.2 528.4 403.6 528.3 403.3 C 528.1 403.1 527.3 403.3 527.0 403.3 C 526.7 403.3 526.9 404.0 526.9 404.0 C 526.9 404.0 527.0 404.5 526.6 404.5 C 526.1 404.5 525.1 403.4 525.1 403.4 C 525.1 403.4 524.3 403.2 523.8 403.3 C 523.3 403.3 523.3 404.2 523.4 404.4 C 523.4 404.6 522.8 403.8 522.3 403.7 C 521.8 403.6 521.0 403.3 520.9 403.4 C 520.7 403.4 520.9 404.0 520.9 404.0 C 520.9 404.0 520.4 404.3 520.2 404.3 C 520.0 404.3 519.7 403.5 519.7 403.5 C 519.7 403.5 518.0 403.3 517.6 403.2 C 517.2 403.1 516.9 403.4 516.7 403.4 C 516.5 403.5 516.9 404.4 516.5 404.3 C 516.0 404.2 516.4 403.7 515.9 403.6 C 515.5 403.5 514.8 403.3 514.6 403.3 C 514.4 403.3 514.4 403.7 514.2 403.7 C 513.9 403.8 514.0 404.5 513.5 404.5 C 513.1 404.5 512.5 404.0 512.3 404.0 C 512.1 403.9 511.5 403.2 511.1 403.2 C 510.8 403.2 511.3 403.6 511.0 403.6 C 510.6 403.6 510.9 404.1 510.5 404.0 C 510.1 403.9 509.8 403.1 509.5 403.2 C 509.4 403.3 509.5 403.2 508.5 403.3 C 508.5 403.3 508.5 403.3 508.5 403.3 Z M 529.8 403.4 C 529.0 403.0 528.9 403.5 529.3 403.9 C 529.7 404.2 530.7 405.2 530.7 405.5 C 530.8 405.8 530.7 406.5 531.8 406.6 C 532.8 406.7 532.7 406.5 532.5 406.2 C 532.3 406.0 531.6 405.0 532.0 405.1 C 532.3 405.2 532.8 405.4 532.9 405.6 C 533.1 405.7 534.3 406.7 534.6 406.6 C 534.9 406.4 535.1 406.1 535.1 406.1 C 535.3 406.1 535.5 406.1 535.7 406.1 C 535.7 406.1 536.8 406.7 537.2 406.6 C 537.6 406.4 538.1 406.4 538.5 406.5 C 538.9 406.5 539.2 406.4 539.0 406.2 C 538.9 406.0 538.6 405.1 538.6 405.1 C 538.6 405.1 538.9 404.9 539.3 405.0 C 539.6 405.2 540.1 405.6 540.2 405.8 C 540.4 406.0 540.8 406.5 541.3 406.6 C 541.7 406.6 543.8 407.1 543.7 406.8 C 543.7 406.6 543.3 406.2 543.4 406.1 C 543.5 406.0 544.5 405.9 544.8 406.2 C 545.1 406.4 545.5 406.9 545.8 406.9 C 546.0 406.8 546.8 407.0 546.6 406.8 C 546.5 406.7 546.6 406.6 546.3 406.3 C 546.0 406.0 546.4 405.8 546.4 405.6 C 546.4 405.6 546.4 405.5 546.5 405.5 C 546.5 405.3 546.4 405.1 546.4 405.1 C 546.6 405.0 546.7 405.0 546.9 404.9 C 546.9 404.9 547.4 405.8 547.5 406.1 C 547.6 406.4 547.9 406.4 548.0 406.2 C 548.0 406.1 547.9 404.8 547.9 404.8 C 547.5 404.4 547.2 404.1 546.8 403.7 C 546.7 403.3 546.6 403.0 546.5 402.6 C 546.5 402.6 547.9 404.0 547.9 403.4 C 547.9 402.9 547.9 402.2 547.9 402.2 C 547.9 402.2 547.4 401.2 547.3 401.0 C 547.3 400.8 546.1 399.7 546.1 399.7 C 545.6 399.3 545.2 398.9 544.7 398.5 C 544.7 398.5 544.2 398.8 544.4 399.3 C 544.6 399.8 545.1 400.0 545.3 400.2 C 545.6 400.5 545.8 401.2 545.8 401.2 C 545.5 401.2 545.3 401.2 545.0 401.2 C 545.0 401.2 544.8 401.2 544.5 401.2 C 544.3 401.2 544.2 401.9 544.3 402.2 C 544.4 402.6 544.7 403.1 544.9 403.6 C 545.0 403.9 545.2 404.2 545.3 404.3 C 545.3 404.4 545.2 404.4 545.0 404.2 C 544.3 403.9 543.7 403.5 543.6 403.5 C 543.4 403.5 543.1 404.0 543.1 404.0 C 543.0 404.1 542.9 404.2 542.7 404.3 C 542.7 404.3 542.4 404.6 542.1 404.3 C 541.7 404.0 540.9 404.3 540.9 404.3 C 540.9 404.3 540.2 403.5 539.8 403.4 C 539.3 403.2 538.7 403.0 538.4 403.2 C 538.0 403.3 538.4 404.1 538.4 404.1 C 538.1 403.9 537.7 403.7 537.4 403.5 C 536.9 403.4 536.4 403.4 535.9 403.3 C 535.9 403.3 535.0 403.4 535.1 403.5 C 535.2 403.6 536.0 404.3 536.1 404.5 C 536.2 404.7 535.9 404.9 535.6 404.7 C 535.3 404.5 534.3 403.8 534.3 403.8 C 534.3 403.8 533.5 403.4 533.2 403.4 C 532.8 403.3 532.6 403.5 532.6 403.7 C 532.6 403.8 532.6 404.3 532.6 404.3 C 532.2 404.1 531.9 403.9 531.6 403.7 C 531.6 403.7 531.1 404.0 529.8 403.4 C 529.8 403.4 529.8 403.4 529.8 403.4 Z M 544.3 397.7 C 544.3 398.8 547.0 400.5 547.5 400.6 C 548.0 400.6 547.7 399.6 547.8 398.9 C 547.9 398.3 547.1 397.8 546.8 397.2 C 546.6 396.6 547.1 397.2 547.5 397.3 C 547.9 397.5 547.5 396.1 547.6 395.4 C 547.6 394.8 546.7 393.4 546.7 392.9 C 546.6 392.3 546.2 393.0 546.3 392.1 C 546.3 391.2 546.8 392.0 547.1 393.3 C 547.4 394.6 547.6 393.2 547.7 392.7 C 547.8 392.1 547.4 390.8 547.4 390.4 C 547.5 390.0 546.8 390.1 546.8 389.4 C 546.9 388.7 547.5 389.5 547.6 388.9 C 547.7 388.3 547.1 387.9 547.0 387.5 C 546.8 387.0 547.2 387.4 547.2 387.1 C 547.3 386.8 547.5 386.5 547.4 385.7 C 547.2 385.0 547.0 385.0 547.0 384.7 C 546.9 384.4 546.9 383.8 546.9 383.8 C 547.1 383.9 547.4 384.0 547.6 384.1 C 547.6 384.1 547.6 382.9 547.7 382.6 C 547.7 382.2 547.4 381.3 547.3 381.4 C 547.2 381.6 546.7 380.5 546.8 380.4 C 546.9 380.3 547.2 379.8 547.4 379.5 C 547.5 379.1 545.8 378.4 545.6 378.3 C 545.3 378.2 544.4 377.6 544.3 377.8 C 544.2 378.1 544.6 378.6 544.3 378.4 C 544.1 378.2 544.3 379.4 544.3 379.7 C 544.3 379.9 545.0 380.6 545.0 380.6 C 545.0 380.6 545.5 381.2 545.5 381.6 C 545.5 382.1 544.4 381.7 544.4 381.7 C 544.4 381.7 544.2 382.1 544.3 382.7 C 544.3 383.3 545.2 384.5 545.4 384.7 C 545.6 384.9 544.8 384.4 544.7 384.8 C 544.6 385.1 544.3 385.5 544.4 385.7 C 544.4 385.9 545.0 386.6 545.0 386.6 C 545.0 386.6 545.3 387.5 545.3 387.7 C 545.3 387.9 544.5 387.1 544.5 387.1 C 544.5 387.1 544.3 388.4 544.2 388.7 C 544.1 389.0 544.4 389.6 544.4 389.9 C 544.5 390.2 545.4 391.2 545.3 391.5 C 545.2 391.8 544.7 390.7 544.6 390.9 C 544.5 391.2 544.3 391.7 544.3 391.9 C 544.3 392.0 544.7 392.5 544.7 392.8 C 544.8 393.2 545.5 394.1 545.5 394.6 C 545.5 395.1 545.0 394.9 545.0 395.0 C 544.9 395.1 544.2 394.7 544.2 395.0 C 544.2 395.4 544.6 395.5 544.6 395.8 C 544.6 396.2 545.1 396.6 545.0 396.9 C 544.9 397.1 544.1 396.2 544.2 396.7 C 544.3 396.9 544.2 396.7 544.3 397.7 C 544.3 397.7 544.3 397.7 544.3 397.7 Z M 545.1 376.0 C 545.2 376.2 544.7 376.2 544.5 376.7 C 544.4 377.2 544.3 377.9 544.7 377.9 C 545.0 377.9 545.2 377.8 545.6 378.3 C 546.0 378.8 546.7 379.5 546.9 379.2 C 547.2 378.9 547.9 377.6 547.5 376.9 C 547.2 376.2 547.0 376.0 546.8 375.5 C 546.5 375.0 547.3 375.6 547.3 375.6 C 547.3 375.6 547.4 374.7 547.5 374.1 C 547.5 373.4 547.6 372.7 547.4 372.6 C 547.3 372.4 547.0 372.1 547.0 372.1 C 547.0 372.1 547.4 371.9 547.5 371.4 C 547.5 370.9 547.3 371.0 547.1 371.1 C 547.0 371.1 546.4 371.5 546.4 371.3 C 546.4 371.1 547.2 370.7 547.3 370.4 C 547.4 370.1 547.3 369.3 547.3 369.3 C 547.3 369.3 546.9 369.2 546.8 369.1 C 546.7 369.0 546.6 368.2 546.8 368.3 C 546.9 368.3 547.4 368.5 547.5 368.1 C 547.5 366.9 546.7 366.8 546.6 366.7 C 546.6 366.6 547.3 366.8 547.4 366.5 C 547.5 366.3 547.4 363.9 547.2 363.7 C 547.1 363.6 547.7 362.9 547.3 362.5 C 546.8 362.1 546.7 362.0 546.6 361.9 C 546.5 361.8 545.8 361.3 546.1 361.1 C 546.3 360.9 547.1 361.9 547.3 361.7 C 547.5 361.4 547.6 359.9 547.4 359.7 C 547.1 359.3 546.4 359.1 546.4 358.9 C 546.4 358.7 547.3 358.0 547.1 357.9 C 547.0 357.8 546.3 357.7 546.2 357.6 C 546.0 357.6 544.8 357.3 544.6 357.5 C 544.4 357.6 544.0 358.4 544.3 358.3 C 544.7 358.3 545.1 358.1 545.3 358.4 C 545.5 358.7 545.5 358.9 545.3 358.9 C 545.2 359.0 545.1 358.8 544.8 359.3 C 544.6 359.8 544.3 359.5 544.3 360.0 C 544.3 360.4 544.4 360.8 544.7 360.8 C 545.0 360.8 545.4 361.4 545.3 361.7 C 545.3 362.0 544.7 361.4 544.5 362.4 C 544.2 363.4 544.2 364.0 544.4 364.4 C 544.6 364.7 545.4 364.9 545.1 365.4 C 544.7 365.8 544.5 365.5 544.6 366.1 C 544.6 366.8 545.2 367.2 545.2 367.7 C 545.2 368.1 545.2 368.2 545.2 368.2 C 545.2 368.2 544.3 367.8 544.3 368.7 C 544.3 369.7 544.2 369.8 544.8 369.8 C 545.4 369.8 545.4 370.5 545.0 370.5 C 544.6 370.4 544.4 370.8 544.3 371.2 C 544.3 371.5 545.3 371.9 545.3 372.1 C 545.3 372.2 545.3 372.6 544.9 372.3 C 544.6 372.0 544.6 372.4 544.4 372.6 C 544.3 372.9 544.4 373.8 544.6 373.9 C 544.8 373.9 545.4 373.8 545.1 374.2 C 544.8 374.7 544.3 374.6 544.3 375.2 C 544.3 375.8 544.9 375.6 545.1 376.0 C 545.1 376.0 545.1 376.0 545.1 376.0 Z M 544.4 356.7 C 544.0 357.1 544.5 357.6 544.9 357.5 C 545.2 357.5 546.2 357.4 546.5 357.6 C 546.8 357.8 547.5 358.4 547.6 357.5 C 547.7 356.6 547.5 356.4 547.2 356.4 C 547.0 356.4 546.0 356.2 546.1 355.9 C 546.2 355.7 546.4 355.5 546.6 355.4 C 546.7 355.4 547.7 355.0 547.6 354.6 C 547.4 354.1 547.1 353.7 547.1 353.7 C 547.1 353.5 547.1 353.3 547.1 353.1 C 547.1 353.1 547.7 352.4 547.6 351.9 C 547.4 351.5 547.4 350.9 547.5 350.5 C 547.5 350.2 547.4 349.8 547.2 349.8 C 547.0 349.7 546.1 349.4 546.1 349.4 C 546.1 349.4 545.9 348.8 546.0 348.6 C 546.2 348.3 546.6 348.2 546.8 348.3 C 547.0 348.3 547.5 348.2 547.6 347.8 C 547.6 347.4 548.1 345.7 547.8 345.5 C 547.6 345.3 547.2 345.5 547.1 345.3 C 547.0 345.1 546.9 344.1 547.2 344.0 C 547.4 343.8 547.9 343.8 547.9 343.5 C 547.8 343.2 548.0 342.6 547.8 342.6 C 547.7 342.6 547.6 342.5 547.3 342.5 C 547.0 342.5 546.8 342.0 546.6 341.9 C 546.5 341.8 546.4 341.4 546.4 341.4 C 546.6 341.1 546.7 340.9 546.9 340.6 C 546.9 340.6 547.4 340.9 547.5 341.0 C 547.6 341.2 547.9 340.8 548.0 340.6 C 548.0 340.4 547.9 339.2 547.9 339.2 C 547.5 339.3 547.2 339.4 546.8 339.5 C 546.7 339.3 546.6 339.0 546.5 338.8 C 546.5 338.8 547.9 338.5 547.9 337.9 C 547.9 337.3 547.9 336.7 547.9 336.7 C 547.9 336.7 547.4 336.3 547.3 336.2 C 547.3 336.0 546.1 336.4 546.1 336.4 C 545.6 336.6 545.2 336.8 544.7 337.0 C 544.7 337.0 544.2 337.8 544.4 338.1 C 544.6 338.4 545.1 337.9 545.3 337.9 C 545.6 337.9 545.8 338.3 545.8 338.3 C 545.5 338.7 545.3 339.0 545.0 339.3 C 545.0 339.3 544.8 339.6 544.5 339.9 C 544.3 340.2 544.2 341.1 544.3 341.3 C 544.4 341.5 544.7 341.6 544.9 341.8 C 545.1 342.1 545.6 341.9 545.2 342.3 C 544.9 342.8 544.5 343.0 544.5 343.2 C 544.5 343.4 545.0 344.0 545.0 344.0 C 545.1 344.2 545.2 344.4 545.3 344.6 C 545.3 344.6 545.6 345.1 545.3 345.2 C 545.0 345.4 545.3 346.5 545.3 346.5 C 545.3 346.5 544.5 346.5 544.4 346.8 C 544.2 347.1 544.0 347.6 544.2 348.0 C 544.3 348.5 545.1 348.7 545.1 348.7 C 544.9 348.9 544.7 349.1 544.5 349.2 C 544.4 349.7 544.4 350.1 544.3 350.5 C 544.3 350.5 544.4 351.5 544.5 351.5 C 544.6 351.5 545.3 351.3 545.5 351.4 C 545.7 351.4 545.9 351.9 545.7 352.0 C 545.5 352.1 544.8 352.6 544.8 352.6 C 544.8 352.6 544.4 353.0 544.4 353.3 C 544.3 353.6 544.5 354.0 544.7 354.1 C 544.8 354.2 545.3 354.7 545.3 354.7 C 545.1 354.8 544.9 355.0 544.7 355.1 C 544.7 355.1 545.0 355.9 544.4 356.7 C 544.4 356.7 544.4 356.7 544.4 356.7 Z M 544.3 336.8 C 544.3 337.8 547.0 336.1 547.5 335.5 C 548.0 334.9 547.7 334.3 547.8 333.5 C 547.9 332.7 547.1 333.3 546.8 333.0 C 546.6 332.7 547.1 332.6 547.5 332.3 C 547.9 331.9 547.5 331.0 547.6 330.3 C 547.6 329.6 546.7 329.3 546.7 328.8 C 546.6 328.3 546.2 329.5 546.3 328.6 C 546.3 327.6 546.8 327.8 547.1 328.7 C 547.4 329.7 547.6 328.0 547.7 327.4 C 547.8 326.7 547.4 325.9 547.4 325.4 C 547.5 324.9 546.8 325.9 546.8 325.2 C 546.9 324.5 547.5 324.4 547.6 323.7 C 547.7 322.9 547.1 323.4 547.0 323.1 C 546.8 322.9 547.2 322.7 547.2 322.3 C 547.3 322.0 547.5 321.4 547.4 320.8 C 547.2 320.3 547.0 320.6 547.0 320.3 C 546.9 320.1 546.9 319.5 546.9 319.5 C 547.1 319.3 547.4 319.1 547.6 318.9 C 547.6 318.9 547.6 317.7 547.7 317.3 C 547.7 316.9 547.4 316.3 547.3 316.6 C 547.2 316.9 546.7 316.5 546.8 316.2 C 546.9 316.0 547.2 315.1 547.4 314.6 C 547.5 314.0 545.8 315.5 545.6 315.7 C 545.3 315.9 544.4 316.4 544.3 316.8 C 544.2 317.2 544.6 317.2 544.3 317.4 C 544.1 317.5 544.3 318.3 544.3 318.6 C 544.3 318.9 545.0 318.8 545.0 318.8 C 545.0 318.8 545.5 318.7 545.5 319.1 C 545.5 319.6 544.4 320.5 544.4 320.5 C 544.4 320.5 544.2 321.2 544.3 321.8 C 544.3 322.3 545.2 322.3 545.4 322.3 C 545.6 322.3 544.8 322.8 544.7 323.3 C 544.6 323.8 544.3 324.5 544.4 324.6 C 544.4 324.8 545.0 324.7 545.0 324.7 C 545.0 324.7 545.3 325.3 545.3 325.4 C 545.3 325.6 544.5 325.8 544.5 325.8 C 544.5 325.8 544.3 327.5 544.2 327.8 C 544.1 328.2 544.4 328.6 544.4 328.8 C 544.5 329.0 545.4 328.8 545.3 329.2 C 545.2 329.6 544.7 329.2 544.6 329.5 C 544.5 329.9 544.3 330.7 544.3 330.8 C 544.3 331.0 544.7 331.1 544.7 331.3 C 544.8 331.6 545.5 331.6 545.5 332.1 C 545.5 332.6 545.0 333.0 545.0 333.2 C 544.9 333.4 544.2 333.8 544.2 334.2 C 544.2 334.5 544.6 334.1 544.6 334.4 C 544.6 334.8 545.1 334.6 545.0 335.0 C 544.9 335.3 544.1 335.5 544.2 335.8 C 544.3 335.9 544.2 335.8 544.3 336.8 C 544.3 336.8 544.3 336.8 544.3 336.8 Z M 544.4 315.9 C 544.0 316.7 544.5 316.7 544.9 316.4 C 545.2 316.0 546.2 315.1 546.5 315.0 C 546.8 315.0 547.5 315.1 547.6 314.0 C 547.7 313.0 547.5 313.1 547.2 313.2 C 547.0 313.4 546.0 314.1 546.1 313.8 C 546.2 313.5 546.4 313.0 546.6 312.8 C 546.7 312.6 547.7 311.5 547.6 311.2 C 547.4 310.8 547.1 310.7 547.1 310.7 C 547.1 310.5 547.1 310.2 547.1 310.0 C 547.1 310.0 547.7 308.9 547.6 308.5 C 547.4 308.2 547.4 307.6 547.5 307.2 C 547.5 306.8 547.4 306.5 547.2 306.7 C 547.0 306.8 546.1 307.1 546.1 307.1 C 546.1 307.1 545.9 306.8 546.0 306.5 C 546.2 306.1 546.6 305.6 546.8 305.5 C 547.0 305.3 547.5 304.8 547.6 304.4 C 547.6 304.2 547.7 303.7 547.8 303.2 C 547.4 303.1 546.8 303.0 546.5 303.2 C 546.0 303.4 545.7 303.8 545.5 303.9 C 545.2 304.0 544.1 304.1 544.2 303.8 C 544.4 303.6 544.9 303.1 544.6 303.1 C 544.2 303.2 543.7 303.0 543.6 303.2 C 543.5 303.3 543.1 303.4 542.9 303.7 C 542.6 304.0 541.8 304.2 541.5 304.4 C 541.3 304.5 540.8 304.6 540.8 304.6 C 540.7 304.4 540.6 304.3 540.6 304.1 C 540.6 304.1 541.4 303.6 541.7 303.5 C 541.9 303.4 541.9 303.1 541.8 303.0 C 541.6 303.0 540.4 303.1 540.4 303.1 C 540.0 303.5 539.7 303.8 539.3 304.2 C 539.0 304.3 538.6 304.4 538.3 304.5 C 538.3 304.5 539.5 303.1 539.0 303.1 C 538.4 303.1 537.7 303.1 537.7 303.1 C 537.7 303.1 536.8 303.6 536.6 303.7 C 536.4 303.7 535.4 304.9 535.4 304.9 C 535.1 305.4 534.8 305.8 534.4 306.3 C 534.4 306.3 534.7 306.8 535.2 306.6 C 535.7 306.4 535.8 305.9 536.0 305.7 C 536.3 305.4 537.0 305.2 537.0 305.2 C 537.0 305.5 537.1 305.7 537.1 306.0 C 537.1 306.0 537.1 306.2 537.1 306.5 C 537.2 306.7 537.8 306.8 538.2 306.7 C 538.5 306.6 539.0 306.3 539.5 306.1 C 540.0 305.9 540.3 305.4 540.3 305.8 C 540.4 306.1 540.2 306.5 540.4 306.5 C 540.6 306.5 541.8 306.0 541.8 306.0 C 542.1 305.9 542.4 305.8 542.7 305.7 C 542.7 305.7 543.5 305.4 543.3 305.7 C 543.1 306.0 544.6 305.7 544.6 305.7 C 544.6 305.7 543.6 306.5 543.8 306.6 C 543.9 306.7 544.0 306.8 544.2 306.8 C 544.1 307.1 544.1 307.3 544.2 307.5 C 544.3 307.8 545.1 307.4 545.1 307.4 C 544.9 307.7 544.7 308.0 544.5 308.4 C 544.4 308.9 544.4 309.4 544.3 309.8 C 544.3 309.8 544.4 310.8 544.5 310.7 C 544.6 310.5 545.3 309.8 545.5 309.7 C 545.7 309.5 545.9 309.9 545.7 310.1 C 545.5 310.4 544.8 311.4 544.8 311.4 C 544.8 311.4 544.4 312.2 544.4 312.5 C 544.3 312.9 544.5 313.1 544.7 313.1 C 544.8 313.1 545.3 313.2 545.3 313.2 C 545.1 313.5 544.9 313.8 544.7 314.1 C 544.7 314.1 545.0 314.6 544.4 315.9 C 544.4 315.9 544.4 315.9 544.4 315.9 Z M 533.7 306.7 C 534.7 306.7 536.1 304.0 536.1 303.5 C 536.1 303.0 535.1 303.3 534.5 303.2 C 533.8 303.1 533.5 303.9 532.9 304.2 C 532.3 304.4 532.8 303.9 532.9 303.5 C 533.0 303.1 531.6 303.5 531.0 303.4 C 530.4 303.4 529.1 304.3 528.5 304.3 C 528.0 304.4 528.7 304.8 527.8 304.7 C 526.9 304.7 527.6 304.2 528.9 303.9 C 530.2 303.6 528.8 303.4 528.2 303.3 C 527.7 303.2 526.4 303.6 526.0 303.6 C 525.5 303.5 525.7 304.2 525.1 304.2 C 524.4 304.1 525.1 303.5 524.5 303.4 C 523.8 303.3 523.6 303.9 523.1 304.0 C 522.7 304.2 523.0 303.8 522.7 303.8 C 522.4 303.7 522.0 303.5 521.3 303.6 C 520.6 303.8 520.7 304.0 520.3 304.0 C 520.0 304.1 519.5 304.1 519.5 304.1 C 519.5 303.9 519.6 303.6 519.7 303.4 C 519.7 303.4 518.5 303.4 518.1 303.3 C 517.8 303.3 516.9 303.6 517.0 303.7 C 517.2 303.8 516.2 304.3 516.0 304.2 C 515.9 304.1 515.4 303.8 515.1 303.6 C 514.7 303.5 514.2 305.2 514.1 305.4 C 514.0 305.7 513.5 306.6 513.8 306.7 C 514.1 306.8 514.5 306.4 514.3 306.7 C 514.2 306.9 515.3 306.7 515.6 306.7 C 515.9 306.7 516.5 306.0 516.5 306.0 C 516.5 306.0 517.0 305.5 517.4 305.5 C 517.9 305.5 517.6 306.6 517.6 306.6 C 517.6 306.6 518.1 306.8 518.7 306.7 C 519.2 306.7 520.3 305.8 520.5 305.6 C 520.7 305.4 520.3 306.2 520.6 306.3 C 521.0 306.4 521.4 306.7 521.6 306.6 C 521.8 306.6 522.4 306.0 522.4 306.0 C 522.4 306.0 523.3 305.7 523.5 305.7 C 523.7 305.7 522.9 306.5 522.9 306.5 C 522.9 306.5 524.4 306.7 524.6 306.8 C 524.9 306.9 525.5 306.6 525.8 306.6 C 526.1 306.5 527.0 305.6 527.3 305.7 C 527.6 305.8 526.6 306.3 526.8 306.4 C 527.1 306.5 527.6 306.7 527.8 306.7 C 527.9 306.7 528.4 306.3 528.7 306.3 C 529.0 306.2 529.9 305.5 530.4 305.5 C 530.9 305.5 530.8 306.0 530.9 306.0 C 531.0 306.1 530.6 306.8 531.0 306.8 C 531.3 306.8 531.4 306.4 531.7 306.4 C 532.1 306.4 532.4 305.9 532.7 306.0 C 533.0 306.1 532.2 306.9 532.6 306.8 C 532.8 306.7 532.6 306.8 533.7 306.7 C 533.7 306.7 533.7 306.7 533.7 306.7 Z M 512.9 306.6 C 513.3 307.0 513.9 306.5 514.0 306.1 C 514.0 305.8 514.2 304.8 514.5 304.5 C 514.8 304.2 515.7 303.5 514.8 303.4 C 513.9 303.3 513.6 303.5 513.6 303.8 C 513.5 304.0 513.0 305.0 512.8 304.9 C 512.6 304.8 512.4 304.6 512.4 304.4 C 512.4 304.3 512.3 303.3 511.8 303.4 C 511.4 303.6 510.9 303.9 510.9 303.9 C 510.6 303.9 510.4 303.9 510.2 303.9 C 510.2 303.9 509.7 303.3 509.2 303.4 C 508.7 303.6 508.2 303.6 507.8 303.5 C 507.4 303.5 507.1 303.6 506.9 303.8 C 506.8 304.0 506.2 304.9 506.2 304.9 C 506.2 304.9 505.6 305.1 505.4 305.0 C 505.2 304.8 505.2 304.4 505.3 304.2 C 505.4 304.0 505.4 303.5 505.1 303.4 C 504.7 303.4 503.2 302.9 502.9 303.2 C 502.6 303.4 502.6 303.8 502.4 303.9 C 502.2 304.0 501.2 304.1 501.1 303.8 C 501.1 303.6 501.2 303.1 500.9 303.1 C 500.6 303.2 500.0 303.0 500.0 303.2 C 499.9 303.3 499.7 303.4 499.7 303.7 C 499.6 304.0 499.0 304.2 498.9 304.4 C 498.8 304.5 498.3 304.6 498.3 304.6 C 498.1 304.4 497.9 304.3 497.7 304.1 C 497.7 304.1 498.1 303.6 498.3 303.5 C 498.5 303.4 498.2 303.1 498.0 303.0 C 497.8 303.0 496.6 303.1 496.6 303.1 C 496.6 303.5 496.6 303.8 496.6 304.2 C 496.3 304.3 496.0 304.4 495.7 304.5 C 495.7 304.5 495.8 303.1 495.3 303.1 C 494.7 303.1 494.1 303.1 494.1 303.1 C 494.1 303.1 493.5 303.6 493.4 303.7 C 493.2 303.7 493.2 304.9 493.2 304.9 C 493.3 305.4 493.4 305.8 493.4 306.3 C 493.4 306.3 494.1 306.8 494.4 306.6 C 494.8 306.4 494.5 305.9 494.5 305.7 C 494.5 305.4 495.1 305.2 495.1 305.2 C 495.3 305.5 495.6 305.7 495.8 306.0 C 495.8 306.0 496.0 306.2 496.2 306.5 C 496.5 306.7 497.3 306.8 497.5 306.7 C 497.7 306.6 498.0 306.3 498.3 306.1 C 498.6 305.9 498.5 305.4 498.9 305.8 C 499.2 306.1 499.4 306.5 499.5 306.5 C 499.7 306.5 500.5 306.0 500.5 306.0 C 500.7 305.9 500.9 305.8 501.2 305.7 C 501.2 305.7 501.8 305.4 501.8 305.7 C 501.8 306.0 503.0 305.7 503.0 305.7 C 503.0 305.7 502.8 306.5 503.1 306.6 C 503.3 306.8 503.8 307.0 504.2 306.8 C 504.7 306.7 505.2 305.9 505.2 305.9 C 505.3 306.1 505.4 306.3 505.5 306.5 C 505.9 306.6 506.4 306.6 506.8 306.7 C 506.8 306.7 507.8 306.6 507.8 306.5 C 507.8 306.4 507.9 305.7 508.0 305.5 C 508.1 305.3 508.7 305.1 508.7 305.3 C 508.7 305.5 509.0 306.2 509.0 306.2 C 509.0 306.2 509.3 306.6 509.5 306.6 C 509.8 306.7 510.3 306.5 510.5 306.3 C 510.7 306.2 511.3 305.7 511.3 305.7 C 511.3 305.9 511.4 306.1 511.4 306.3 C 511.4 306.3 512.3 306.0 512.9 306.6 C 512.9 306.6 512.9 306.6 512.9 306.6 Z M 493.0 306.7 C 494.0 306.7 493.2 304.0 492.8 303.5 C 492.3 303.0 491.6 303.3 490.9 303.2 C 490.1 303.1 490.5 303.9 490.1 304.2 C 489.7 304.4 489.8 303.9 489.5 303.5 C 489.3 303.1 488.2 303.5 487.6 303.4 C 486.9 303.4 486.4 304.3 485.8 304.3 C 485.3 304.4 486.4 304.8 485.4 304.7 C 484.5 304.7 484.8 304.2 485.9 303.9 C 486.9 303.6 485.3 303.4 484.7 303.3 C 484.1 303.2 483.1 303.6 482.7 303.6 C 482.2 303.5 482.9 304.2 482.2 304.2 C 481.6 304.1 481.7 303.5 481.0 303.4 C 480.2 303.3 480.5 303.9 480.2 304.0 C 479.9 304.2 479.8 303.8 479.5 303.8 C 479.2 303.7 478.7 303.5 478.1 303.6 C 477.4 303.8 477.7 304.0 477.4 304.0 C 477.1 304.1 476.6 304.1 476.6 304.1 C 476.5 303.9 476.4 303.6 476.2 303.4 C 476.2 303.4 475.0 303.4 474.6 303.3 C 474.2 303.3 473.5 303.6 473.8 303.7 C 474.1 303.8 473.5 304.3 473.3 304.2 C 473.0 304.1 472.3 303.8 471.8 303.6 C 471.3 303.5 472.2 305.2 472.4 305.4 C 472.5 305.7 472.7 306.6 473.1 306.7 C 473.5 306.8 473.6 306.4 473.6 306.7 C 473.7 306.9 474.6 306.7 474.9 306.7 C 475.2 306.7 475.2 306.0 475.2 306.0 C 475.2 306.0 475.3 305.5 475.8 305.5 C 476.2 305.5 476.8 306.6 476.8 306.6 C 476.8 306.6 477.5 306.8 478.0 306.7 C 478.6 306.7 478.9 305.8 478.9 305.6 C 479.0 305.4 479.2 306.2 479.7 306.3 C 480.1 306.4 480.8 306.7 480.9 306.6 C 481.1 306.6 481.2 306.0 481.2 306.0 C 481.2 306.0 481.8 305.7 482.0 305.7 C 482.2 305.7 482.1 306.5 482.1 306.5 C 482.1 306.5 483.7 306.7 484.0 306.8 C 484.4 306.9 484.8 306.6 485.0 306.6 C 485.3 306.5 485.4 305.6 485.7 305.7 C 486.1 305.8 485.5 306.3 485.9 306.4 C 486.3 306.5 486.9 306.7 487.1 306.7 C 487.3 306.7 487.4 306.3 487.7 306.3 C 488.0 306.2 488.3 305.5 488.7 305.5 C 489.2 305.5 489.5 306.0 489.7 306.0 C 489.8 306.1 490.0 306.8 490.4 306.8 C 490.8 306.8 490.4 306.4 490.8 306.4 C 491.1 306.4 491.1 305.9 491.4 306.0 C 491.8 306.1 491.6 306.9 492.0 306.8 C 492.2 306.7 492.0 306.8 493.0 306.7 C 493.0 306.7 493.0 306.7 493.0 306.7 Z M 470.5 305.9 C 470.7 305.8 471.1 306.3 471.7 306.5 C 472.4 306.6 473.1 306.7 472.8 306.3 C 472.5 306.0 472.2 305.8 472.3 305.4 C 472.4 305.0 472.4 304.3 471.9 304.1 C 471.4 303.8 469.4 303.1 469.0 303.5 C 468.7 303.8 468.6 304.0 468.4 304.2 C 468.1 304.5 467.9 303.7 467.9 303.7 C 467.9 303.7 467.0 303.6 466.3 303.5 C 465.6 303.5 464.8 303.4 464.8 303.6 C 464.8 303.7 464.8 304.0 464.8 304.0 C 464.8 304.0 464.2 303.6 463.6 303.5 C 463.1 303.5 463.4 303.7 463.6 303.9 C 463.8 304.0 464.7 304.6 464.5 304.6 C 464.3 304.6 463.2 303.8 462.8 303.7 C 462.4 303.6 461.6 303.7 461.6 303.7 C 461.6 303.7 462.0 304.1 462.0 304.2 C 462.0 304.3 461.3 304.4 461.1 304.2 C 461.0 304.1 460.7 303.6 460.3 303.5 C 459.1 303.5 459.9 304.3 459.8 304.4 C 459.7 304.4 459.2 303.7 458.8 303.6 C 458.5 303.5 456.2 303.6 456.2 303.8 C 456.2 303.9 454.9 303.3 454.9 303.7 C 454.9 304.2 454.9 304.3 454.9 304.4 C 455.0 304.5 455.1 305.2 454.6 304.9 C 454.2 304.7 454.5 303.9 454.0 303.7 C 453.6 303.5 452.1 303.4 452.0 303.6 C 451.9 303.9 452.4 304.6 452.2 304.6 C 452.0 304.6 450.4 303.7 450.4 303.9 C 450.5 304.0 451.0 304.7 451.1 304.8 C 451.2 305.0 452.1 306.2 452.4 306.4 C 452.7 306.6 454.0 307.0 453.6 306.7 C 453.1 306.3 452.5 305.9 452.7 305.7 C 452.9 305.5 453.0 305.5 453.2 305.7 C 453.4 305.8 453.4 305.9 454.1 306.2 C 454.8 306.4 454.7 306.7 455.2 306.7 C 455.6 306.7 456.0 306.6 455.7 306.3 C 455.4 306.0 455.6 305.6 456.0 305.7 C 456.3 305.7 456.2 306.3 457.5 306.5 C 458.7 306.8 459.4 306.8 459.5 306.6 C 459.6 306.4 459.2 305.6 459.9 305.9 C 460.6 306.3 460.5 306.5 461.1 306.4 C 461.8 306.4 461.7 305.8 462.1 305.8 C 462.5 305.8 462.6 305.8 462.6 305.8 C 462.6 305.8 463.0 306.7 464.0 306.7 C 464.9 306.7 465.2 306.8 464.6 306.2 C 464.0 305.6 464.7 305.6 465.0 306.0 C 465.3 306.4 466.0 306.6 466.4 306.7 C 466.7 306.7 466.2 305.7 466.3 305.7 C 466.5 305.7 466.9 305.7 466.9 306.1 C 467.0 306.4 467.4 306.4 467.8 306.6 C 468.1 306.7 468.9 306.6 468.8 306.4 C 468.7 306.2 467.9 305.6 468.7 305.9 C 469.5 306.2 469.9 306.7 470.5 306.7 C 471.0 306.7 470.2 306.1 470.5 305.9 C 470.5 305.9 470.5 305.9 470.5 305.9 Z M 451.8 306.6 C 452.6 307.0 452.6 306.5 452.2 306.1 C 451.9 305.8 450.8 304.8 450.7 304.5 C 450.7 304.2 450.7 303.5 449.6 303.4 C 448.6 303.3 448.6 303.5 448.9 303.8 C 449.1 304.0 449.8 305.0 449.5 304.9 C 449.2 304.8 448.7 304.6 448.5 304.4 C 448.3 304.3 447.0 303.3 446.7 303.4 C 446.4 303.6 446.3 303.9 446.3 303.9 C 446.1 303.9 445.9 303.9 445.7 303.9 C 445.7 303.9 444.9 303.6 444.5 303.5 C 444.4 303.5 444.4 303.6 444.4 303.8 C 444.6 304.4 444.6 304.9 444.5 305.3 C 444.5 305.6 444.6 306.0 444.8 306.3 C 445.0 306.6 445.9 307.9 445.9 307.9 C 445.9 307.9 446.1 308.6 446.0 308.8 C 445.8 308.9 445.4 308.5 445.2 308.2 C 445.0 308.0 444.5 307.6 444.4 307.9 C 444.4 308.2 443.9 309.3 444.2 309.8 C 444.4 310.3 444.8 310.6 444.9 310.8 C 445.0 311.1 445.1 312.2 444.8 312.1 C 444.6 311.9 444.1 311.4 444.1 311.7 C 444.2 312.1 444.0 312.6 444.2 312.7 C 444.3 312.8 444.4 313.1 444.7 313.4 C 445.0 313.7 445.2 314.5 445.4 314.7 C 445.5 315.0 445.6 315.5 445.6 315.5 C 445.4 315.5 445.3 315.6 445.1 315.7 C 445.1 315.7 444.6 314.9 444.5 314.6 C 444.4 314.3 444.1 314.3 444.0 314.5 C 444.0 314.6 444.1 315.9 444.1 315.9 C 444.5 316.2 444.8 316.6 445.2 316.9 C 445.3 317.3 445.4 317.6 445.5 318.0 C 445.5 318.0 444.1 316.7 444.1 317.2 C 444.1 317.8 444.1 318.4 444.1 318.4 C 444.1 318.4 444.6 319.4 444.7 319.6 C 444.7 319.8 445.9 320.9 445.9 320.9 C 446.4 321.2 446.8 321.6 447.3 321.9 C 447.3 321.9 447.8 321.7 447.6 321.2 C 447.4 320.6 446.9 320.5 446.7 320.3 C 446.4 320.0 446.2 319.3 446.2 319.3 C 446.5 319.2 446.7 319.2 447.0 319.2 C 447.0 319.2 447.2 319.2 447.5 319.2 C 447.7 319.1 447.8 318.4 447.7 318.1 C 447.6 317.8 447.3 317.3 447.1 316.8 C 446.9 316.3 446.4 316.0 446.8 315.9 C 447.1 315.9 447.5 316.0 447.5 315.8 C 447.5 315.7 447.0 314.5 447.0 314.5 C 446.9 314.2 446.8 313.9 446.7 313.5 C 446.7 313.5 446.4 312.8 446.7 312.9 C 447.0 313.1 446.7 311.7 446.7 311.7 C 446.7 311.7 447.5 312.6 447.6 312.4 C 447.8 312.2 448.0 311.9 447.8 311.3 C 447.7 310.8 446.9 309.6 446.9 309.6 C 447.1 309.7 447.3 309.7 447.5 309.8 C 447.6 309.4 447.6 309.0 447.7 308.7 C 447.7 308.7 447.6 307.6 447.5 307.5 C 447.4 307.3 446.7 306.8 446.5 306.5 C 446.3 306.3 446.1 305.5 446.3 305.7 C 446.4 305.8 446.8 305.9 447.0 306.0 C 447.2 306.1 447.3 306.2 447.3 306.2 C 447.3 306.2 448.1 306.6 448.5 306.6 C 448.8 306.7 449.0 306.5 449.0 306.3 C 449.0 306.2 449.0 305.7 449.0 305.7 C 449.3 305.9 449.6 306.1 450.0 306.3 C 450.0 306.3 450.4 306.0 451.8 306.6 C 451.8 306.6 451.8 306.6 451.8 306.6 Z M 447.7 322.7 C 447.7 321.6 445.0 320.1 444.5 320.0 C 444.0 320.0 444.3 321.0 444.2 321.6 C 444.1 322.3 444.9 322.7 445.2 323.3 C 445.4 323.9 444.9 323.4 444.5 323.2 C 444.1 323.1 444.5 324.5 444.4 325.1 C 444.4 325.7 445.3 327.1 445.3 327.7 C 445.4 328.2 445.8 327.6 445.7 328.5 C 445.7 329.4 445.2 328.5 444.9 327.2 C 444.6 325.9 444.4 327.3 444.3 327.8 C 444.2 328.3 444.6 329.6 444.6 330.1 C 444.5 330.5 445.2 330.4 445.2 331.1 C 445.1 331.7 444.5 330.9 444.4 331.5 C 444.3 332.1 444.9 332.5 445.0 333.0 C 445.2 333.4 444.8 333.1 444.8 333.3 C 444.7 333.6 444.5 333.9 444.6 334.7 C 444.8 335.4 445.0 335.4 445.0 335.7 C 445.1 336.1 445.1 336.6 445.1 336.6 C 444.9 336.5 444.6 336.4 444.4 336.2 C 444.4 336.2 444.4 337.4 444.3 337.7 C 444.3 338.0 444.6 339.1 444.7 338.9 C 444.8 338.8 445.3 339.9 445.2 340.0 C 445.1 340.1 444.8 340.5 444.6 340.8 C 444.5 341.1 446.2 342.1 446.4 342.3 C 446.7 342.4 447.6 343.2 447.7 343.0 C 447.8 342.7 447.4 342.2 447.7 342.4 C 447.9 342.6 447.7 341.4 447.7 341.1 C 447.7 340.8 447.0 340.1 447.0 340.1 C 447.0 340.1 446.5 339.4 446.5 339.0 C 446.5 338.5 447.6 339.0 447.6 339.0 C 447.6 339.0 447.8 338.6 447.7 338.0 C 447.7 337.4 446.8 336.1 446.6 335.9 C 446.4 335.6 447.2 336.2 447.3 335.9 C 447.4 335.5 447.7 335.1 447.6 334.9 C 447.6 334.7 447.0 334.0 447.0 334.0 C 447.0 334.0 446.7 333.0 446.7 332.9 C 446.7 332.7 447.5 333.6 447.5 333.6 C 447.5 333.6 447.7 332.2 447.8 331.9 C 447.9 331.6 447.6 331.0 447.6 330.7 C 447.5 330.4 446.6 329.3 446.7 329.1 C 446.8 328.8 447.3 329.9 447.4 329.6 C 447.5 329.3 447.7 328.9 447.7 328.7 C 447.7 328.5 447.3 328.0 447.3 327.7 C 447.2 327.4 446.5 326.4 446.5 325.9 C 446.5 325.4 447.0 325.6 447.0 325.5 C 447.1 325.4 447.8 325.8 447.8 325.4 C 447.8 325.1 447.4 325.0 447.4 324.7 C 447.4 324.3 446.9 323.9 447.0 323.6 C 447.1 323.4 447.9 324.2 447.8 323.8 C 447.7 323.6 447.8 323.8 447.7 322.7 C 447.7 322.7 447.7 322.7 447.7 322.7 Z M 447.6 343.7 C 448.0 343.5 447.5 342.8 447.1 342.6 C 446.8 342.4 445.8 342.0 445.5 341.6 C 445.2 341.3 444.5 340.2 444.4 341.0 C 444.3 341.9 444.5 342.2 444.8 342.4 C 445.0 342.5 446.0 343.3 445.9 343.5 C 445.8 343.7 445.6 343.7 445.4 343.7 C 445.3 343.7 444.3 343.4 444.4 344.0 C 444.6 344.5 444.9 345.1 444.9 345.1 C 444.9 345.3 444.9 345.5 444.9 345.7 C 444.9 345.7 444.3 346.0 444.4 346.5 C 444.6 347.1 444.6 347.6 444.5 348.0 C 444.5 348.3 444.6 348.7 444.8 348.9 C 445.0 349.1 445.9 350.0 445.9 350.0 C 445.9 350.0 446.1 350.7 446.0 350.9 C 445.8 351.0 445.4 350.8 445.2 350.7 C 445.0 350.5 444.5 350.3 444.4 350.6 C 444.4 351.0 443.9 352.3 444.2 352.7 C 444.4 353.0 444.8 353.2 444.9 353.4 C 445.0 353.6 445.1 354.7 444.8 354.7 C 444.6 354.6 444.1 354.3 444.1 354.6 C 444.2 355.0 444.0 355.5 444.2 355.6 C 444.3 355.6 444.4 355.9 444.7 356.1 C 445.0 356.2 445.2 356.9 445.4 357.1 C 445.5 357.3 445.6 357.8 445.6 357.8 C 445.4 357.9 445.3 358.0 445.1 358.2 C 445.1 358.2 444.6 357.6 444.5 357.3 C 444.4 357.1 444.1 357.3 444.0 357.4 C 444.0 357.6 444.1 358.8 444.1 358.8 C 444.5 359.0 444.8 359.2 445.2 359.4 C 445.3 359.7 445.4 360.0 445.5 360.3 C 445.5 360.3 444.1 359.6 444.1 360.1 C 444.1 360.7 444.1 361.3 444.1 361.3 C 444.1 361.3 444.6 362.1 444.7 362.3 C 444.7 362.4 445.9 363.0 445.9 363.0 C 446.4 363.2 446.8 363.3 447.3 363.5 C 447.3 363.5 447.8 363.0 447.6 362.6 C 447.4 362.2 446.9 362.2 446.7 362.1 C 446.4 361.9 446.2 361.3 446.2 361.3 C 446.5 361.2 446.7 361.0 447.0 360.9 C 447.0 360.9 447.2 360.8 447.5 360.7 C 447.7 360.5 447.8 359.8 447.7 359.5 C 447.6 359.2 447.3 358.8 447.1 358.4 C 446.9 358.0 446.4 357.9 446.8 357.7 C 447.1 357.5 447.5 357.5 447.5 357.3 C 447.5 357.2 447.0 356.2 447.0 356.2 C 446.9 355.9 446.8 355.6 446.7 355.4 C 446.7 355.4 446.4 354.7 446.7 354.7 C 447.0 354.8 446.7 353.5 446.7 353.5 C 446.7 353.5 447.5 354.0 447.6 353.8 C 447.8 353.6 448.0 353.2 447.8 352.7 C 447.7 352.1 446.9 351.4 446.9 351.4 C 447.1 351.3 447.3 351.3 447.5 351.3 C 447.6 350.9 447.6 350.5 447.7 350.0 C 447.7 350.0 447.6 349.0 447.5 348.9 C 447.4 348.9 446.7 348.6 446.5 348.4 C 446.3 348.3 446.1 347.6 446.3 347.7 C 446.5 347.7 447.2 347.7 447.2 347.7 C 447.2 347.7 447.6 347.5 447.6 347.2 C 447.7 347.0 447.5 346.4 447.3 346.2 C 447.2 346.0 446.7 345.2 446.7 345.2 C 446.9 345.2 447.1 345.2 447.3 345.2 C 447.3 345.2 447.0 344.2 447.6 343.7 C 447.6 343.7 447.6 343.7 447.6 343.7 Z M 446.9 365.6 C 446.8 365.3 447.3 365.3 447.5 364.8 C 447.6 364.3 447.7 363.6 447.3 363.6 C 447.0 363.6 446.8 363.7 446.4 363.3 C 446.0 362.8 445.3 362.2 445.1 362.5 C 444.8 362.8 444.1 364.1 444.5 364.8 C 444.8 365.4 445.0 365.6 445.2 366.1 C 445.5 366.6 444.7 366.0 444.7 366.0 C 444.7 366.0 444.6 366.9 444.5 367.5 C 444.5 368.1 444.4 368.9 444.6 369.0 C 444.7 369.1 445.0 369.5 445.0 369.5 C 445.0 369.5 444.6 369.7 444.5 370.1 C 444.5 370.6 444.7 370.5 444.9 370.5 C 445.0 370.5 445.6 370.1 445.6 370.3 C 445.6 370.5 444.8 370.8 444.7 371.2 C 444.6 371.5 444.7 372.3 444.7 372.3 C 444.7 372.3 445.1 372.3 445.2 372.4 C 445.3 372.5 445.4 373.3 445.2 373.3 C 445.1 373.3 444.6 373.0 444.5 373.4 C 444.5 374.6 445.3 374.7 445.4 374.8 C 445.4 374.9 444.7 374.7 444.6 375.0 C 444.5 375.2 444.6 377.6 444.8 377.7 C 444.9 377.9 444.3 378.5 444.7 379.0 C 445.2 379.4 445.3 379.5 445.4 379.6 C 445.5 379.7 446.2 380.3 445.9 380.5 C 445.7 380.6 444.9 379.5 444.7 379.8 C 444.5 380.0 444.4 381.4 444.6 381.7 C 444.9 382.1 445.6 382.4 445.6 382.6 C 445.6 382.8 444.7 383.4 444.9 383.5 C 445.0 383.6 445.7 383.9 445.8 383.9 C 446.0 383.9 447.2 384.5 447.4 384.3 C 447.6 384.2 448.0 383.4 447.7 383.5 C 447.3 383.5 446.9 383.6 446.7 383.3 C 446.5 382.9 446.5 382.8 446.7 382.7 C 446.8 382.7 446.9 382.9 447.2 382.4 C 447.4 382.0 447.7 382.3 447.7 381.9 C 447.7 381.4 447.6 380.9 447.3 380.9 C 447.0 380.9 446.6 380.3 446.7 380.0 C 446.7 379.6 447.3 380.3 447.5 379.4 C 447.8 378.4 447.8 377.7 447.6 377.3 C 447.4 377.0 446.6 376.7 446.9 376.3 C 447.3 375.9 447.5 376.2 447.4 375.5 C 447.4 374.9 446.8 374.4 446.8 374.0 C 446.8 373.5 446.8 373.4 446.8 373.4 C 446.8 373.4 447.7 373.9 447.7 372.9 C 447.7 372.0 447.8 371.8 447.2 371.8 C 446.6 371.8 446.6 371.0 447.0 371.1 C 447.4 371.2 447.6 370.8 447.7 370.4 C 447.7 370.1 446.7 369.7 446.7 369.5 C 446.7 369.4 446.7 369.0 447.1 369.3 C 447.4 369.6 447.4 369.2 447.6 368.9 C 447.7 368.7 447.6 367.7 447.4 367.7 C 447.2 367.6 446.6 367.8 446.9 367.3 C 447.2 366.9 447.7 366.9 447.7 366.3 C 447.7 365.7 447.1 366.0 446.9 365.6 C 446.9 365.6 446.9 365.6 446.9 365.6 Z M 447.6 385.2 C 448.0 384.8 447.5 384.2 447.1 384.2 C 446.8 384.2 445.8 384.2 445.5 383.9 C 445.2 383.7 444.5 382.9 444.4 383.8 C 444.3 384.7 444.5 384.9 444.8 385.0 C 445.0 385.0 446.0 385.4 445.9 385.6 C 445.8 385.8 445.6 386.0 445.4 386.1 C 445.3 386.1 444.3 386.3 444.4 386.7 C 444.6 387.2 444.9 387.6 444.9 387.6 C 444.9 387.9 444.9 388.1 444.9 388.3 C 444.9 388.3 444.3 388.8 444.4 389.3 C 444.6 389.8 444.6 390.3 444.5 390.7 C 444.5 391.1 444.6 391.4 444.8 391.5 C 445.0 391.6 445.9 392.2 445.9 392.2 C 445.9 392.2 446.1 392.8 446.0 393.0 C 445.8 393.2 445.4 393.2 445.2 393.1 C 445.0 393.0 444.5 393.0 444.4 393.4 C 444.4 393.8 443.9 395.3 444.2 395.5 C 444.4 395.8 444.8 395.8 444.9 396.0 C 445.0 396.2 445.1 397.2 444.8 397.3 C 444.6 397.3 444.1 397.2 444.1 397.5 C 444.2 397.8 444.0 398.4 444.2 398.4 C 444.3 398.4 444.4 398.7 444.7 398.7 C 445.0 398.7 445.2 399.3 445.4 399.5 C 445.5 399.6 445.6 400.1 445.6 400.1 C 445.4 400.3 445.3 400.5 445.1 400.6 C 445.1 400.6 444.6 400.3 444.5 400.1 C 444.4 399.9 444.1 400.2 444.0 400.4 C 444.0 400.5 444.1 401.7 444.1 401.7 C 444.5 401.7 444.8 401.8 445.2 401.8 C 445.3 402.1 445.4 402.3 445.5 402.6 C 445.5 402.6 444.1 402.5 444.1 403.0 C 444.1 403.6 444.1 404.2 444.1 404.2 C 444.1 404.2 444.6 404.8 444.7 404.9 C 444.7 405.1 445.9 405.1 445.9 405.1 C 446.4 405.1 446.8 405.1 447.3 405.0 C 447.3 405.0 447.8 404.4 447.6 404.0 C 447.4 403.7 446.9 404.0 446.7 403.9 C 446.4 403.8 446.2 403.3 446.2 403.3 C 446.5 403.1 446.7 402.8 447.0 402.6 C 447.0 402.6 447.2 402.4 447.5 402.2 C 447.7 401.9 447.8 401.1 447.7 400.9 C 447.6 400.6 447.3 400.4 447.1 400.1 C 446.9 399.8 446.4 399.8 446.8 399.5 C 447.1 399.2 447.5 399.0 447.5 398.8 C 447.5 398.7 447.0 397.9 447.0 397.9 C 446.9 397.6 446.8 397.4 446.7 397.2 C 446.7 397.2 446.4 396.6 446.7 396.5 C 447.0 396.5 446.7 395.3 446.7 395.3 C 446.7 395.3 447.5 395.5 447.6 395.2 C 447.8 394.9 448.0 394.5 447.8 394.0 C 447.7 393.5 446.9 393.1 446.9 393.1 C 447.1 393.0 447.3 392.8 447.5 392.7 C 447.6 392.3 447.6 391.9 447.7 391.4 C 447.7 391.4 447.6 390.4 447.5 390.4 C 447.4 390.4 446.7 390.4 446.5 390.3 C 446.3 390.2 446.1 389.7 446.3 389.7 C 446.5 389.6 447.2 389.3 447.2 389.3 C 447.2 389.3 447.6 388.9 447.6 388.6 C 447.7 388.3 447.5 387.8 447.3 387.7 C 447.2 387.6 446.7 387.0 446.7 387.0 C 446.9 386.9 447.1 386.8 447.3 386.7 C 447.3 386.7 447.0 385.9 447.6 385.2 C 447.6 385.2 447.6 385.2 447.6 385.2 Z M 447.6 385.2 " fill="#FEFFFE"></path></g></g><g><clipPath id="clip-19"><path d="M 445.5 307.0 L 546.5 307.0 L 546.5 403.0 L 445.5 403.0 Z M 445.5 307.0 "></path></clipPath><g clip-path="url(#clip-19)"><text xml:space="preserve" font-family="Helvetica-Light" font-size="26.0" fill="#FEFFFF" transform="matrix(1.00, 0.00, -0.00, -1.00, 472.0, 345.0)">J</text><text xml:space="preserve" font-family="Helvetica-Light" font-size="26.0" fill="#FEFFFF" transform="matrix(1.00, 0.00, -0.00, -1.00, 485.0, 345.0)">u</text><text xml:space="preserve" font-family="Helvetica-Light" font-size="26.0" fill="#FEFFFF" transform="matrix(1.00, 0.00, -0.00, -1.00, 499.5, 345.0)">s</text><text xml:space="preserve" font-family="Helvetica-Light" font-size="26.0" fill="#FEFFFF" transform="matrix(1.00, 0.00, -0.00, -1.00, 512.5, 345.0)">t</text></g></g></g><text xml:space="preserve" font-family="Helvetica-Light" font-size="36.0" fill="#FEFFFF" transform="matrix(1.00, 0.00, -0.00, -1.00, 459.0, 317.0)">a</text></g></svg>