<?xml version="1.0" encoding="UTF-8" standalone="no"?><svg xmlns="http://www.w3.org/2000/svg" xmlns:xlink="http://www.w3.org/1999/xlink" clip-rule="evenodd" stroke-miterlimit="4.00" viewBox="0 0 1024 768"><desc>SVG generated by Keynote</desc><defs></defs><g transform="matrix(1.00, 0.00, -0.00, -1.00, 0.0, 768.0)"><path d="M 0.0 768.0 L 1024.0 768.0 L 1024.0 0.0 L 0.0 0.0 Z M 0.0 768.0 " fill="#000000"></path><text xml:space="preserve" font-family="Helvetica-Light" font-size="58.4" fill="#FEFFFF" transform="matrix(1.00, 0.00, -0.00, -1.00, 193.0, 452.0)">T</text><text xml:space="preserve" font-family="Helvetica-Light" font-size="58.4" fill="#FEFFFF" transform="matrix(1.00, 0.00, -0.00, -1.00, 225.5, 452.0)">H</text><text xml:space="preserve" font-family="Helvetica-Light" font-size="58.4" fill="#FEFFFF" transform="matrix(1.00, 0.00, -0.00, -1.00, 267.6, 452.0)">A</text><text xml:space="preserve" font-family="Helvetica-Light" font-size="58.4" fill="#FEFFFF" transform="matrix(1.00, 0.00, -0.00, -1.00, 301.2, 452.0)">T</text><text xml:space="preserve" font-family="Helvetica-Light" font-size="58.4" fill="#FEFFFF" transform="matrix(1.00, 0.00, -0.00, -1.00, 333.7, 452.0)">S</text><text xml:space="preserve" font-family="Helvetica-Light" font-size="58.4" fill="#FEFFFF" transform="matrix(1.00, 0.00, -0.00, -1.00, 369.4, 452.0)"> </text><text xml:space="preserve" font-family="Helvetica-Light" font-size="58.4" fill="#FEFFFF" transform="matrix(1.00, 0.00, -0.00, -1.00, 385.6, 452.0)">4</text><text xml:space="preserve" font-family="Helvetica-Light" font-size="58.4" fill="#FEFFFF" transform="matrix(1.00, 0.00, -0.00, -1.00, 418.1, 452.0)"> </text><text xml:space="preserve" font-family="Helvetica-Light" font-size="58.4" fill="#FEFFFF" transform="matrix(1.00, 0.00, -0.00, -1.00, 434.3, 452.0)">C</text><text xml:space="preserve" font-family="Helvetica-Light" font-size="58.4" fill="#FEFFFF" transform="matrix(1.00, 0.00, -0.00, -1.00, 476.5, 452.0)">H</text><text xml:space="preserve" font-family="Helvetica-Light" font-size="58.4" fill="#FEFFFF" transform="matrix(1.00, 0.00, -0.00, -1.00, 518.6, 452.0)">A</text><text xml:space="preserve" font-family="Helvetica-Light" font-size="58.4" fill="#FEFFFF" transform="matrix(1.00, 0.00, -0.00, -1.00, 557.6, 452.0)">P</text><text xml:space="preserve" font-family="Helvetica-Light" font-size="58.4" fill="#FEFFFF" transform="matrix(1.00, 0.00, -0.00, -1.00, 593.3, 452.0)">T</text><text xml:space="preserve" font-family="Helvetica-Light" font-size="58.4" fill="#FEFFFF" transform="matrix(1.00, 0.00, -0.00, -1.00, 625.7, 452.0)">E</text><text xml:space="preserve" font-family="Helvetica-Light" font-size="58.4" fill="#FEFFFF" transform="matrix(1.00, 0.00, -0.00, -1.00, 661.4, 452.0)">R</text><text xml:space="preserve" font-family="Helvetica-Light" font-size="58.4" fill="#FEFFFF" transform="matrix(1.00, 0.00, -0.00, -1.00, 700.4, 452.0)">S</text><text xml:space="preserve" font-family="Helvetica-Light" font-size="58.4" fill="#FEFFFF" transform="matrix(1.00, 0.00, -0.00, -1.00, 736.1, 452.0)"> </text><text xml:space="preserve" font-family="Helvetica-Light" font-size="58.4" fill="#FEFFFF" transform="matrix(1.00, 0.00, -0.00, -1.00, 752.3, 452.0)">O</text><text xml:space="preserve" font-family="Helvetica-Light" font-size="58.4" fill="#FEFFFF" transform="matrix(1.00, 0.00, -0.00, -1.00, 797.7, 452.0)">F</text><text xml:space="preserve" font-family="Helvetica-Light" font-size="58.4" fill="#FEFFFF" transform="matrix(1.00, 0.00, -0.00, -1.00, 830.2, 452.0)"> </text><text xml:space="preserve" font-family="Helvetica-Light" font-size="58.4" fill="#FEFFFF" transform="matrix(1.00, 0.00, -0.00, -1.00, 82.0, 382.0)">O</text><text xml:space="preserve" font-family="Helvetica-Light" font-size="58.4" fill="#FEFFFF" transform="matrix(1.00, 0.00, -0.00, -1.00, 127.4, 382.0)">’</text><text xml:space="preserve" font-family="Helvetica-Light" font-size="58.4" fill="#FEFFFF" transform="matrix(1.00, 0.00, -0.00, -1.00, 140.4, 382.0)">R</text><text xml:space="preserve" font-family="Helvetica-Light" font-size="58.4" fill="#FEFFFF" transform="matrix(1.00, 0.00, -0.00, -1.00, 179.4, 382.0)">I</text><text xml:space="preserve" font-family="Helvetica-Light" font-size="58.4" fill="#FEFFFF" transform="matrix(1.00, 0.00, -0.00, -1.00, 195.6, 382.0)">E</text><text xml:space="preserve" font-family="Helvetica-Light" font-size="58.4" fill="#FEFFFF" transform="matrix(1.00, 0.00, -0.00, -1.00, 231.3, 382.0)">L</text><text xml:space="preserve" font-family="Helvetica-Light" font-size="58.4" fill="#FEFFFF" transform="matrix(1.00, 0.00, -0.00, -1.00, 263.7, 382.0)">L</text><text xml:space="preserve" font-family="Helvetica-Light" font-size="58.4" fill="#FEFFFF" transform="matrix(1.00, 0.00, -0.00, -1.00, 289.7, 382.0)">Y</text><text xml:space="preserve" font-family="Helvetica-Light" font-size="58.4" fill="#FEFFFF" transform="matrix(1.00, 0.00, -0.00, -1.00, 325.4, 382.0)"> </text><text xml:space="preserve" font-family="Helvetica-Light" font-size="58.4" fill="#FEFFFF" transform="matrix(1.00, 0.00, -0.00, -1.00, 341.6, 382.0)">-</text><text xml:space="preserve" font-family="Helvetica-Light" font-size="58.4" fill="#FEFFFF" transform="matrix(1.00, 0.00, -0.00, -1.00, 361.1, 382.0)">&gt;</text><text xml:space="preserve" font-family="Helvetica-Light" font-size="58.4" fill="#FEFFFF" transform="matrix(1.00, 0.00, -0.00, -1.00, 399.6, 382.0)"> </text><text xml:space="preserve" font-family="Helvetica-Light" font-size="58.4" fill="#FEFFFF" transform="matrix(1.00, 0.00, -0.00, -1.00, 415.9, 382.0)">T</text><text xml:space="preserve" font-family="Helvetica-Light" font-size="58.4" fill="#FEFFFF" transform="matrix(1.00, 0.00, -0.00, -1.00, 448.3, 382.0)">O</text><text xml:space="preserve" font-family="Helvetica-Light" font-size="58.4" fill="#FEFFFF" transform="matrix(1.00, 0.00, -0.00, -1.00, 493.8, 382.0)"> </text><text xml:space="preserve" font-family="Helvetica-Light" font-size="58.4" fill="#FEFFFF" transform="matrix(1.00, 0.00, -0.00, -1.00, 510.0, 382.0)">B</text><text xml:space="preserve" font-family="Helvetica-Light" font-size="58.4" fill="#FEFFFF" transform="matrix(1.00, 0.00, -0.00, -1.00, 549.0, 382.0)">E</text><text xml:space="preserve" font-family="Helvetica-Light" font-size="58.4" fill="#FEFFFF" transform="matrix(1.00, 0.00, -0.00, -1.00, 584.6, 382.0)"> </text><text xml:space="preserve" font-family="Helvetica-Light" font-size="58.4" fill="#FEFFFF" transform="matrix(1.00, 0.00, -0.00, -1.00, 600.9, 382.0)">C</text><text xml:space="preserve" font-family="Helvetica-Light" font-size="58.4" fill="#FEFFFF" transform="matrix(1.00, 0.00, -0.00, -1.00, 643.0, 382.0)">O</text><text xml:space="preserve" font-family="Helvetica-Light" font-size="58.4" fill="#FEFFFF" transform="matrix(1.00, 0.00, -0.00, -1.00, 688.5, 382.0)">N</text><text xml:space="preserve" font-family="Helvetica-Light" font-size="58.4" fill="#FEFFFF" transform="matrix(1.00, 0.00, -0.00, -1.00, 730.6, 382.0)">T</text><text xml:space="preserve" font-family="Helvetica-Light" font-size="58.4" fill="#FEFFFF" transform="matrix(1.00, 0.00, -0.00, -1.00, 763.1, 382.0)">I</text><text xml:space="preserve" font-family="Helvetica-Light" font-size="58.4" fill="#FEFFFF" transform="matrix(1.00, 0.00, -0.00, -1.00, 779.4, 382.0)">N</text><text xml:space="preserve" font-family="Helvetica-Light" font-size="58.4" fill="#FEFFFF" transform="matrix(1.00, 0.00, -0.00, -1.00, 821.5, 382.0)">U</text><text xml:space="preserve" font-family="Helvetica-Light" font-size="58.4" fill="#FEFFFF" transform="matrix(1.00, 0.00, -0.00, -1.00, 863.7, 382.0)">E</text><text xml:space="preserve" font-family="Helvetica-Light" font-size="58.4" fill="#FEFFFF" transform="matrix(1.00, 0.00, -0.00, -1.00, 899.4, 382.0)">D</text></g></svg>